{"glyphs":{"0":{"ha":875,"x_min":0,"x_max":0,"o":"m 438 -18 b 63 486 197 -18 63 186 b 438 990 63 786 197 990 b 813 486 679 990 813 786 b 438 -18 813 186 679 -18 m 438 108 b 685 486 594 108 685 244 b 438 865 685 728 594 865 b 192 486 281 865 192 728 b 438 108 192 244 281 108 "},"1":{"ha":494,"x_min":0,"x_max":0,"o":"m 386 972 l 386 0 l 258 0 l 258 833 l 51 772 l 19 883 l 275 972 "},"2":{"ha":732,"x_min":0,"x_max":0,"o":"m 50 106 l 393 456 b 531 692 469 532 531 610 b 358 865 531 806 449 865 b 158 735 269 865 200 822 l 50 799 b 357 990 113 928 231 990 b 660 693 508 990 660 885 b 486 372 660 572 582 468 l 238 125 l 678 125 l 678 0 l 50 0 "},"3":{"ha":743,"x_min":0,"x_max":0,"o":"m 439 574 b 692 288 579 547 692 449 b 358 -18 692 90 533 -18 b 39 179 215 -18 89 49 l 147 243 b 358 108 176 153 253 108 b 563 288 475 108 563 172 b 358 468 563 404 475 468 l 325 468 l 274 547 l 499 851 l 67 851 l 67 972 l 650 972 l 650 858 l 439 574 "},"4":{"ha":806,"x_min":0,"x_max":0,"o":"m 776 185 l 658 185 l 658 0 l 529 0 l 529 185 l 33 185 l 33 306 l 382 972 l 521 972 l 172 306 l 529 306 l 529 581 l 658 581 l 658 306 l 776 306 "},"5":{"ha":754,"x_min":0,"x_max":0,"o":"m 375 593 b 703 288 549 593 703 486 b 369 -18 703 90 544 -18 b 49 190 226 -18 96 51 l 158 253 b 369 108 185 157 264 108 b 575 288 488 108 575 172 b 372 468 575 404 488 468 l 97 468 l 133 972 l 665 972 l 665 851 l 250 851 l 233 593 l 375 593 "},"6":{"ha":747,"x_min":0,"x_max":0,"o":"m 374 636 b 708 310 568 636 708 503 b 374 -18 708 117 568 -18 b 39 310 178 -18 39 117 b 97 504 39 385 60 451 l 410 972 l 557 972 l 328 633 b 374 636 343 635 358 636 m 374 106 b 581 310 494 106 581 186 b 374 513 581 432 494 513 b 167 310 251 513 167 433 b 374 106 167 186 251 106 "},"7":{"ha":681,"x_min":0,"x_max":0,"o":"m 632 972 l 632 857 l 278 0 l 143 0 l 494 850 l 25 850 l 25 972 "},"8":{"ha":771,"x_min":0,"x_max":0,"o":"m 567 503 b 718 267 660 456 718 372 b 385 -18 718 85 575 -18 b 53 267 196 -18 53 85 b 204 503 53 372 111 456 b 85 715 133 547 85 619 b 385 990 85 901 232 990 b 686 715 539 990 686 901 b 567 503 686 619 638 547 m 385 867 b 213 713 294 867 213 821 b 385 557 213 610 294 557 b 557 713 476 557 557 610 b 385 867 557 821 476 867 m 385 106 b 590 275 504 106 590 163 b 385 443 590 386 504 443 b 181 275 267 443 181 386 b 385 106 181 163 267 106 "},"9":{"ha":747,"x_min":0,"x_max":0,"o":"m 708 664 b 649 468 708 588 688 522 l 650 468 l 336 0 l 190 0 l 421 340 b 374 338 406 339 390 338 b 39 664 178 338 39 471 b 374 990 39 857 178 990 b 708 664 569 990 708 857 m 167 664 b 374 460 167 540 251 460 b 581 664 496 460 581 540 b 374 867 581 788 496 867 b 167 664 251 867 167 786 "},"A":{"ha":893,"x_min":0,"x_max":0,"o":"m 665 218 l 228 218 l 149 0 l 11 0 l 374 972 l 519 972 l 882 0 l 744 0 m 621 339 l 446 818 l 272 339 "},"Á":{"ha":893,"x_min":0,"x_max":0,"o":"m 479 1067 l 363 1067 l 474 1250 l 619 1250 m 665 218 l 228 218 l 149 0 l 11 0 l 374 972 l 519 972 l 882 0 l 744 0 m 621 339 l 446 818 l 272 339 "},"Ă":{"ha":893,"x_min":0,"x_max":0,"o":"m 446 1051 b 239 1239 319 1051 239 1119 l 351 1239 b 446 1149 351 1175 385 1149 b 540 1239 507 1149 540 1175 l 653 1239 b 446 1051 653 1119 575 1051 m 665 218 l 228 218 l 149 0 l 11 0 l 374 972 l 519 972 l 882 0 l 744 0 m 621 339 l 446 818 l 272 339 "},"Â":{"ha":893,"x_min":0,"x_max":0,"o":"m 360 1063 l 231 1063 l 378 1250 l 511 1250 l 658 1063 l 529 1063 l 444 1175 m 665 218 l 228 218 l 149 0 l 11 0 l 374 972 l 519 972 l 882 0 l 744 0 m 621 339 l 446 818 l 272 339 "},"Ä":{"ha":893,"x_min":0,"x_max":0,"o":"m 314 1064 b 240 1138 274 1064 240 1097 b 314 1210 240 1178 274 1210 b 386 1138 354 1210 386 1178 b 314 1064 386 1097 354 1064 m 578 1064 b 504 1138 538 1064 504 1097 b 578 1210 504 1178 538 1210 b 650 1138 618 1210 650 1178 b 578 1064 650 1097 618 1064 m 665 218 l 228 218 l 149 0 l 11 0 l 374 972 l 519 972 l 882 0 l 744 0 m 621 339 l 446 818 l 272 339 "},"À":{"ha":893,"x_min":0,"x_max":0,"o":"m 422 1067 l 282 1250 l 428 1250 l 539 1067 m 665 218 l 228 218 l 149 0 l 11 0 l 374 972 l 519 972 l 882 0 l 744 0 m 621 339 l 446 818 l 272 339 "},"Ā":{"ha":893,"x_min":0,"x_max":0,"o":"m 633 1076 l 258 1076 l 258 1178 l 633 1178 m 665 218 l 228 218 l 149 0 l 11 0 l 374 972 l 519 972 l 882 0 l 744 0 m 621 339 l 446 818 l 272 339 "},"Ą":{"ha":893,"x_min":0,"x_max":0,"o":"m 788 -158 b 831 -200 788 -187 803 -200 b 882 -189 849 -200 864 -197 l 882 -278 b 790 -296 856 -289 826 -296 b 669 -185 715 -296 669 -253 b 767 0 669 -129 706 -62 l 744 0 l 665 218 l 228 218 l 149 0 l 11 0 l 374 972 l 519 972 l 882 0 b 788 -158 824 -56 788 -117 m 621 339 l 446 818 l 272 339 "},"Å":{"ha":893,"x_min":0,"x_max":0,"o":"m 665 218 l 228 218 l 149 0 l 11 0 l 360 935 b 290 1060 317 960 290 1006 b 447 1207 290 1143 354 1207 b 604 1060 542 1207 604 1143 b 533 933 604 1006 578 958 l 882 0 l 744 0 m 447 1122 b 382 1060 406 1122 382 1094 b 447 996 382 1024 406 996 b 514 1060 492 996 514 1024 b 447 1122 514 1094 492 1122 m 621 339 l 446 818 l 272 339 "},"Ã":{"ha":893,"x_min":0,"x_max":0,"o":"m 439 1107 b 339 1074 372 1156 339 1171 l 238 1074 b 451 1211 238 1261 349 1285 b 551 1243 519 1163 551 1147 l 653 1243 b 439 1107 653 1056 543 1033 m 665 218 l 228 218 l 149 0 l 11 0 l 374 972 l 519 972 l 882 0 l 744 0 m 621 339 l 446 818 l 272 339 "},"Æ":{"ha":1222,"x_min":0,"x_max":0,"o":"m 1171 122 l 1171 0 l 625 0 l 625 218 l 278 218 l 146 0 l 0 0 l 589 972 l 1164 972 l 1164 850 l 751 850 l 751 551 l 1139 551 l 1139 431 l 751 431 l 751 122 m 625 339 l 625 794 l 350 339 "},"B":{"ha":854,"x_min":0,"x_max":0,"o":"m 660 504 b 806 275 747 463 806 381 b 524 0 806 119 681 0 l 104 0 l 104 972 l 493 972 b 765 707 644 972 765 857 b 660 504 765 619 724 549 m 233 851 l 233 554 l 493 554 b 638 703 574 554 638 619 b 493 851 638 785 574 851 m 524 121 b 678 279 610 121 678 190 b 524 436 678 367 610 436 l 233 436 l 233 121 l 524 121 "},"C":{"ha":1026,"x_min":0,"x_max":0,"o":"m 561 -18 b 53 486 264 -18 53 207 b 561 990 53 767 264 990 b 981 754 740 990 899 897 l 868 689 b 561 865 813 796 694 865 b 181 486 333 865 181 700 b 561 108 181 274 333 108 b 868 283 694 108 813 178 l 981 219 b 561 -18 900 76 742 -18 "},"Ć":{"ha":1026,"x_min":0,"x_max":0,"o":"m 594 1071 l 735 1254 l 589 1254 l 478 1071 m 561 -18 b 53 486 264 -18 53 207 b 561 990 53 767 264 990 b 981 754 740 990 899 897 l 868 689 b 561 865 813 796 694 865 b 181 486 333 865 181 700 b 561 108 181 274 333 108 b 868 283 694 108 813 178 l 981 219 b 561 -18 900 76 742 -18 "},"Č":{"ha":1026,"x_min":0,"x_max":0,"o":"m 346 1254 l 475 1254 l 560 1142 l 644 1254 l 774 1254 l 626 1067 l 493 1067 m 561 108 b 868 283 694 108 813 178 l 981 219 b 561 -18 900 76 742 -18 b 53 486 264 -18 53 207 b 561 990 53 767 264 990 b 981 754 740 990 899 897 l 868 689 b 561 865 813 796 694 865 b 181 486 333 865 181 700 b 561 108 181 274 333 108 "},"Ç":{"ha":1026,"x_min":0,"x_max":0,"o":"m 561 108 b 868 283 694 108 813 178 l 981 219 b 613 -15 908 90 771 0 l 613 -62 b 731 -174 681 -76 731 -115 b 439 -300 731 -249 672 -314 l 439 -208 b 625 -165 564 -218 625 -200 b 510 -115 625 -132 582 -119 l 510 -15 b 53 486 240 8 53 224 b 561 990 53 767 264 990 b 981 754 740 990 899 897 l 868 689 b 561 865 813 796 694 865 b 181 486 333 865 181 700 b 561 108 181 274 333 108 "},"Ċ":{"ha":1026,"x_min":0,"x_max":0,"o":"m 561 1065 b 474 1151 513 1065 474 1104 b 561 1239 474 1200 513 1239 b 647 1151 608 1239 647 1200 b 561 1065 647 1104 608 1065 m 561 -18 b 53 486 264 -18 53 207 b 561 990 53 767 264 990 b 981 754 740 990 899 897 l 868 689 b 561 865 813 796 694 865 b 181 486 333 865 181 700 b 561 108 181 274 333 108 b 868 283 694 108 813 178 l 981 219 b 561 -18 900 76 742 -18 "},"D":{"ha":997,"x_min":0,"x_max":0,"o":"m 483 972 b 944 486 751 972 944 756 b 483 0 944 217 751 0 l 104 0 l 104 972 l 483 972 m 483 122 b 821 486 683 122 821 281 b 483 850 821 692 683 850 l 233 850 l 233 122 l 483 122 "},"Ð":{"ha":1032,"x_min":0,"x_max":0,"o":"m 518 972 b 979 486 786 972 979 756 b 518 0 979 217 786 0 l 139 0 l 139 425 l 38 425 l 38 542 l 139 542 l 139 972 l 518 972 m 518 122 b 856 486 718 122 856 281 b 518 850 856 692 718 850 l 268 850 l 268 542 l 544 542 l 544 425 l 268 425 l 268 122 l 518 122 "},"Ď":{"ha":997,"x_min":0,"x_max":0,"o":"m 264 1250 l 393 1250 l 478 1138 l 563 1250 l 692 1250 l 544 1063 l 411 1063 m 483 972 b 944 486 751 972 944 756 b 483 0 944 217 751 0 l 104 0 l 104 972 l 483 972 m 483 122 b 821 486 683 122 821 281 b 483 850 821 692 683 850 l 233 850 l 233 122 l 483 122 "},"Đ":{"ha":1032,"x_min":0,"x_max":0,"o":"m 518 972 b 979 486 786 972 979 756 b 518 0 979 217 786 0 l 139 0 l 139 425 l 38 425 l 38 542 l 139 542 l 139 972 l 518 972 m 518 122 b 856 486 718 122 856 281 b 518 850 856 692 718 850 l 268 850 l 268 542 l 544 542 l 544 425 l 268 425 l 268 122 l 518 122 "},"E":{"ha":736,"x_min":0,"x_max":0,"o":"m 685 122 l 685 0 l 104 0 l 104 972 l 678 972 l 678 850 l 233 850 l 233 551 l 643 551 l 643 431 l 233 431 l 233 122 "},"É":{"ha":736,"x_min":0,"x_max":0,"o":"m 425 1067 l 308 1067 l 419 1250 l 565 1250 m 685 122 l 685 0 l 104 0 l 104 972 l 678 972 l 678 850 l 233 850 l 233 551 l 643 551 l 643 431 l 233 431 l 233 122 "},"Ě":{"ha":736,"x_min":0,"x_max":0,"o":"m 176 1250 l 306 1250 l 390 1138 l 475 1250 l 604 1250 l 457 1063 l 324 1063 m 685 122 l 685 0 l 104 0 l 104 972 l 678 972 l 678 850 l 233 850 l 233 551 l 643 551 l 643 431 l 233 431 l 233 122 "},"Ê":{"ha":736,"x_min":0,"x_max":0,"o":"m 306 1063 l 176 1063 l 324 1250 l 457 1250 l 604 1063 l 475 1063 l 390 1175 m 685 122 l 685 0 l 104 0 l 104 972 l 678 972 l 678 850 l 233 850 l 233 551 l 643 551 l 643 431 l 233 431 l 233 122 "},"Ë":{"ha":736,"x_min":0,"x_max":0,"o":"m 260 1064 b 186 1138 219 1064 186 1097 b 260 1210 186 1178 219 1210 b 332 1138 300 1210 332 1178 b 260 1064 332 1097 300 1064 m 524 1064 b 450 1138 483 1064 450 1097 b 524 1210 450 1178 483 1210 b 596 1138 564 1210 596 1178 b 524 1064 596 1097 564 1064 m 685 122 l 685 0 l 104 0 l 104 972 l 678 972 l 678 850 l 233 850 l 233 551 l 643 551 l 643 431 l 233 431 l 233 122 "},"Ė":{"ha":736,"x_min":0,"x_max":0,"o":"m 392 1061 b 304 1147 343 1061 304 1100 b 392 1235 304 1196 343 1235 b 478 1147 439 1235 478 1196 b 392 1061 478 1100 439 1061 m 685 122 l 685 0 l 104 0 l 104 972 l 678 972 l 678 850 l 233 850 l 233 551 l 643 551 l 643 431 l 233 431 l 233 122 "},"È":{"ha":736,"x_min":0,"x_max":0,"o":"m 368 1067 l 228 1250 l 374 1250 l 485 1067 m 685 122 l 685 0 l 104 0 l 104 972 l 678 972 l 678 850 l 233 850 l 233 551 l 643 551 l 643 431 l 233 431 l 233 122 "},"Ē":{"ha":736,"x_min":0,"x_max":0,"o":"m 579 1076 l 204 1076 l 204 1178 l 579 1178 m 685 122 l 685 0 l 104 0 l 104 972 l 678 972 l 678 850 l 233 850 l 233 551 l 643 551 l 643 431 l 233 431 l 233 122 "},"Ę":{"ha":736,"x_min":0,"x_max":0,"o":"m 685 0 b 590 -158 626 -56 590 -117 b 633 -200 589 -187 606 -200 b 685 -189 650 -200 667 -197 l 685 -278 b 593 -296 657 -289 629 -296 b 472 -185 517 -296 472 -253 b 569 0 472 -129 507 -62 l 104 0 l 104 972 l 678 972 l 678 850 l 233 850 l 233 551 l 643 551 l 643 431 l 233 431 l 233 122 l 685 122 l 685 0 "},"F":{"ha":717,"x_min":0,"x_max":0,"o":"m 233 850 l 233 535 l 646 535 l 646 413 l 233 413 l 233 0 l 104 0 l 104 972 l 664 972 l 664 850 "},"G":{"ha":1094,"x_min":0,"x_max":0,"o":"m 1042 424 b 565 -18 1042 176 858 -18 b 53 486 265 -18 53 208 b 563 990 53 765 267 990 b 983 756 744 990 903 894 l 872 690 b 561 865 817 794 699 865 b 181 486 336 865 181 699 b 567 108 181 275 335 108 b 913 365 768 108 888 219 l 556 365 l 556 482 l 1042 482 "},"Ğ":{"ha":1094,"x_min":0,"x_max":0,"o":"m 547 1056 b 340 1243 421 1056 340 1124 l 453 1243 b 547 1153 453 1179 486 1153 b 642 1243 608 1153 642 1179 l 754 1243 b 547 1056 754 1124 676 1056 m 1042 424 b 565 -18 1042 176 858 -18 b 53 486 265 -18 53 208 b 563 990 53 765 267 990 b 983 756 744 990 903 894 l 872 690 b 561 865 817 794 699 865 b 181 486 336 865 181 699 b 567 108 181 275 335 108 b 913 365 768 108 888 219 l 556 365 l 556 482 l 1042 482 "},"Ģ":{"ha":1094,"x_min":0,"x_max":0,"o":"m 1042 424 b 565 -18 1042 176 858 -18 b 53 486 265 -18 53 208 b 563 990 53 765 267 990 b 983 756 744 990 903 894 l 872 690 b 561 865 817 794 699 865 b 181 486 336 865 181 699 b 567 108 181 275 335 108 b 913 365 768 108 888 219 l 556 365 l 556 482 l 1042 482 m 528 -94 l 646 -94 l 604 -344 l 514 -344 "},"Ġ":{"ha":1094,"x_min":0,"x_max":0,"o":"m 547 1065 b 460 1151 499 1065 460 1104 b 547 1239 460 1200 499 1239 b 633 1151 594 1239 633 1200 b 547 1065 633 1104 594 1065 m 1042 424 b 565 -18 1042 176 858 -18 b 53 486 265 -18 53 208 b 563 990 53 765 267 990 b 983 756 744 990 903 894 l 872 690 b 561 865 817 794 699 865 b 181 486 336 865 181 699 b 567 108 181 275 335 108 b 913 365 768 108 888 219 l 556 365 l 556 482 l 1042 482 "},"H":{"ha":938,"x_min":0,"x_max":0,"o":"m 833 972 l 833 0 l 706 0 l 706 438 l 233 438 l 233 0 l 104 0 l 104 972 l 233 972 l 233 560 l 706 560 l 706 972 "},"Ħ":{"ha":1004,"x_min":0,"x_max":0,"o":"m 956 706 l 867 706 l 867 0 l 738 0 l 738 429 l 265 429 l 265 0 l 138 0 l 138 706 l 49 706 l 49 804 l 138 804 l 138 972 l 265 972 l 265 804 l 738 804 l 738 972 l 867 972 l 867 804 l 956 804 m 738 706 l 265 706 l 265 551 l 738 551 "},"I":{"ha":338,"x_min":0,"x_max":0,"o":"m 233 972 l 233 0 l 104 0 l 104 972 "},"Í":{"ha":338,"x_min":0,"x_max":0,"o":"m 201 1067 l 342 1250 l 196 1250 l 85 1067 m 233 972 l 233 0 l 104 0 l 104 972 "},"Î":{"ha":338,"x_min":0,"x_max":0,"o":"m 381 1063 l 251 1063 l 167 1175 l 82 1063 l -47 1063 l 100 1250 l 233 1250 m 104 972 l 233 972 l 233 0 l 104 0 "},"Ï":{"ha":338,"x_min":0,"x_max":0,"o":"m 36 1064 b -37 1138 -4 1064 -37 1097 b 36 1210 -37 1178 -4 1210 b 108 1138 76 1210 108 1178 b 36 1064 108 1097 76 1064 m 300 1064 b 226 1138 260 1064 226 1097 b 300 1210 226 1178 260 1210 b 372 1138 340 1210 372 1178 b 300 1064 372 1097 340 1064 m 233 972 l 233 0 l 104 0 l 104 972 "},"İ":{"ha":338,"x_min":0,"x_max":0,"o":"m 168 1061 b 81 1147 119 1061 81 1100 b 168 1235 81 1196 119 1235 b 254 1147 215 1235 254 1196 b 168 1061 254 1100 215 1061 m 233 972 l 233 0 l 104 0 l 104 972 "},"Ì":{"ha":338,"x_min":0,"x_max":0,"o":"m 150 1250 l 4 1250 l 144 1067 l 261 1067 m 233 972 l 233 0 l 104 0 l 104 972 "},"Ī":{"ha":338,"x_min":0,"x_max":0,"o":"m -19 1178 l 356 1178 l 356 1076 l -19 1076 m 233 972 l 233 0 l 104 0 l 104 972 "},"Į":{"ha":338,"x_min":0,"x_max":0,"o":"m 218 -200 b 271 -189 236 -200 253 -197 l 271 -278 b 178 -296 243 -289 215 -296 b 58 -185 103 -296 58 -253 b 114 0 58 -128 83 -58 l 104 0 l 104 972 l 233 972 l 233 0 b 175 -158 200 -60 175 -107 b 218 -200 175 -187 192 -200 "},"J":{"ha":775,"x_min":0,"x_max":0,"o":"m 357 -18 b 53 156 219 -18 104 40 l 163 219 b 357 108 193 142 263 108 b 556 285 476 108 556 164 l 556 972 l 683 972 l 683 285 b 357 -18 683 82 535 -18 "},"K":{"ha":822,"x_min":0,"x_max":0,"o":"m 653 0 l 233 467 l 233 0 l 104 0 l 104 972 l 233 972 l 233 533 l 639 972 l 797 972 l 368 500 l 811 0 "},"Ķ":{"ha":822,"x_min":0,"x_max":0,"o":"m 811 0 l 653 0 l 233 467 l 233 0 l 104 0 l 104 972 l 233 972 l 233 533 l 639 972 l 797 972 l 368 500 m 371 -94 l 489 -94 l 447 -344 l 357 -344 "},"L":{"ha":678,"x_min":0,"x_max":0,"o":"m 653 122 l 653 0 l 104 0 l 104 972 l 233 972 l 233 122 "},"Ĺ":{"ha":678,"x_min":0,"x_max":0,"o":"m 224 1067 l 107 1067 l 218 1250 l 364 1250 m 653 122 l 653 0 l 104 0 l 104 972 l 233 972 l 233 122 "},"Ľ":{"ha":678,"x_min":0,"x_max":0,"o":"m 653 122 l 653 0 l 104 0 l 104 972 l 233 972 l 233 122 m 454 729 l 361 729 l 375 972 l 496 972 "},"Ļ":{"ha":678,"x_min":0,"x_max":0,"o":"m 653 122 l 653 0 l 104 0 l 104 972 l 233 972 l 233 122 m 335 -94 l 453 -94 l 411 -344 l 321 -344 "},"Ł":{"ha":706,"x_min":0,"x_max":0,"o":"m 681 122 l 681 0 l 132 0 l 132 324 l 49 275 l 49 397 l 132 446 l 132 972 l 261 972 l 261 522 l 479 651 l 479 529 l 261 400 l 261 122 "},"M":{"ha":1118,"x_min":0,"x_max":0,"o":"m 1014 0 l 886 0 l 886 760 l 568 231 l 551 231 l 233 758 l 233 0 l 104 0 l 104 972 l 250 972 l 560 458 l 868 972 l 1014 972 "},"N":{"ha":942,"x_min":0,"x_max":0,"o":"m 838 972 l 838 0 l 733 0 l 233 726 l 233 0 l 104 0 l 104 972 l 208 972 l 708 247 l 708 972 "},"Ń":{"ha":942,"x_min":0,"x_max":0,"o":"m 500 1067 l 640 1250 l 494 1250 l 383 1067 m 838 972 l 838 0 l 733 0 l 233 726 l 233 0 l 104 0 l 104 972 l 208 972 l 708 247 l 708 972 "},"Ň":{"ha":942,"x_min":0,"x_max":0,"o":"m 251 1250 l 381 1250 l 465 1138 l 550 1250 l 679 1250 l 532 1063 l 399 1063 m 838 972 l 838 0 l 733 0 l 233 726 l 233 0 l 104 0 l 104 972 l 208 972 l 708 247 l 708 972 "},"Ņ":{"ha":942,"x_min":0,"x_max":0,"o":"m 838 972 l 838 0 l 733 0 l 233 726 l 233 0 l 104 0 l 104 972 l 208 972 l 708 247 l 708 972 m 533 -94 l 415 -94 l 401 -344 l 492 -344 "},"Ŋ":{"ha":942,"x_min":0,"x_max":0,"o":"m 838 972 l 838 0 b 535 -278 838 -207 707 -282 l 535 -157 b 708 4 638 -157 708 -132 l 708 36 l 233 726 l 233 0 l 104 0 l 104 972 l 208 972 l 708 247 l 708 972 "},"Ñ":{"ha":942,"x_min":0,"x_max":0,"o":"m 258 1074 b 472 1211 258 1261 369 1285 b 572 1243 540 1163 572 1147 l 674 1243 b 460 1107 674 1056 564 1033 b 360 1074 393 1156 360 1171 l 258 1074 m 838 972 l 838 0 l 733 0 l 233 726 l 233 0 l 104 0 l 104 972 l 208 972 l 708 247 l 708 972 "},"O":{"ha":1111,"x_min":0,"x_max":0,"o":"m 556 -18 b 53 486 274 -18 53 207 b 556 990 53 767 274 990 b 1060 486 838 990 1060 767 b 556 -18 1060 207 838 -18 m 556 108 b 931 486 768 108 931 274 b 556 865 931 700 768 865 b 181 486 343 865 181 700 b 556 108 181 274 343 108 "},"Ó":{"ha":1111,"x_min":0,"x_max":0,"o":"m 589 1071 l 729 1254 l 583 1254 l 472 1071 m 556 -18 b 53 486 274 -18 53 207 b 556 990 53 767 274 990 b 1060 486 838 990 1060 767 b 556 -18 1060 207 838 -18 m 556 108 b 931 486 768 108 931 274 b 556 865 931 700 768 865 b 181 486 343 865 181 700 b 556 108 181 274 343 108 "},"Ô":{"ha":1111,"x_min":0,"x_max":0,"o":"m 469 1067 l 340 1067 l 488 1254 l 621 1254 l 768 1067 l 639 1067 l 554 1179 m 556 990 b 1060 486 838 990 1060 767 b 556 -18 1060 207 838 -18 b 53 486 274 -18 53 207 b 556 990 53 767 274 990 m 556 108 b 931 486 768 108 931 274 b 556 865 931 700 768 865 b 181 486 343 865 181 700 b 556 108 181 274 343 108 "},"Ö":{"ha":1111,"x_min":0,"x_max":0,"o":"m 424 1068 b 350 1142 383 1068 350 1101 b 424 1214 350 1182 383 1214 b 496 1142 464 1214 496 1182 b 424 1068 496 1101 464 1068 m 688 1068 b 614 1142 647 1068 614 1101 b 688 1214 614 1182 647 1214 b 760 1142 728 1214 760 1182 b 688 1068 760 1101 728 1068 m 556 -18 b 53 486 274 -18 53 207 b 556 990 53 767 274 990 b 1060 486 838 990 1060 767 b 556 -18 1060 207 838 -18 m 556 108 b 931 486 768 108 931 274 b 556 865 931 700 768 865 b 181 486 343 865 181 700 b 556 108 181 274 343 108 "},"Ò":{"ha":1111,"x_min":0,"x_max":0,"o":"m 538 1254 l 392 1254 l 532 1071 l 649 1071 m 556 -18 b 53 486 274 -18 53 207 b 556 990 53 767 274 990 b 1060 486 838 990 1060 767 b 556 -18 1060 207 838 -18 m 556 108 b 931 486 768 108 931 274 b 556 865 931 700 768 865 b 181 486 343 865 181 700 b 556 108 181 274 343 108 "},"Ő":{"ha":1111,"x_min":0,"x_max":0,"o":"m 476 1067 l 586 1251 l 456 1251 l 354 1067 m 689 1067 l 813 1251 l 682 1251 l 567 1067 m 556 -18 b 53 486 274 -18 53 207 b 556 990 53 767 274 990 b 1060 486 838 990 1060 767 b 556 -18 1060 207 838 -18 m 556 108 b 931 486 768 108 931 274 b 556 865 931 700 768 865 b 181 486 343 865 181 700 b 556 108 181 274 343 108 "},"Ō":{"ha":1111,"x_min":0,"x_max":0,"o":"m 368 1182 l 743 1182 l 743 1081 l 368 1081 m 556 -18 b 53 486 274 -18 53 207 b 556 990 53 767 274 990 b 1060 486 838 990 1060 767 b 556 -18 1060 207 838 -18 m 556 108 b 931 486 768 108 931 274 b 556 865 931 700 768 865 b 181 486 343 865 181 700 b 556 108 181 274 343 108 "},"Ø":{"ha":1124,"x_min":0,"x_max":0,"o":"m 926 843 b 1072 486 1017 753 1072 626 b 568 -18 1072 207 850 -18 b 276 74 458 -18 358 17 l 208 -6 l 133 39 l 210 131 b 65 486 121 221 65 347 b 568 990 65 767 286 990 b 861 899 678 990 779 957 l 928 978 l 1003 935 l 926 843 m 193 486 b 292 226 193 385 231 293 l 779 803 b 568 865 719 842 647 865 b 193 486 356 865 193 700 m 568 108 b 943 486 781 108 943 274 b 844 747 943 589 906 679 l 357 171 b 568 108 417 131 489 108 "},"Õ":{"ha":1111,"x_min":0,"x_max":0,"o":"m 347 1078 b 561 1215 347 1265 458 1289 b 661 1247 629 1167 661 1151 l 763 1247 b 549 1111 763 1060 653 1038 b 449 1078 482 1160 449 1175 l 347 1078 m 556 -18 b 53 486 274 -18 53 207 b 556 990 53 767 274 990 b 1060 486 838 990 1060 767 b 556 -18 1060 207 838 -18 m 556 108 b 931 486 768 108 931 274 b 556 865 931 700 768 865 b 181 486 343 865 181 700 b 556 108 181 274 343 108 "},"Œ":{"ha":1271,"x_min":0,"x_max":0,"o":"m 1219 122 l 1219 0 l 674 0 b 542 -18 633 -11 588 -18 b 53 486 260 -18 53 207 b 542 990 53 767 260 990 b 674 972 588 990 633 983 l 1213 972 l 1213 850 l 803 850 l 803 551 l 1188 551 l 1188 431 l 803 431 l 803 122 m 674 844 b 542 865 633 858 589 865 b 181 486 329 865 181 700 b 542 108 181 274 329 108 b 674 129 589 108 633 114 "},"P":{"ha":819,"x_min":0,"x_max":0,"o":"m 457 972 b 771 660 636 972 771 838 b 457 347 771 483 636 347 l 233 347 l 233 0 l 104 0 l 104 972 l 457 972 m 457 468 b 643 660 564 468 643 550 b 457 851 643 771 564 851 l 233 851 l 233 468 l 457 468 "},"Þ":{"ha":819,"x_min":0,"x_max":0,"o":"m 458 799 b 771 486 636 799 771 664 b 458 174 771 310 636 174 l 233 174 l 233 0 l 104 0 l 104 972 l 233 972 l 233 799 l 458 799 m 458 294 b 643 486 564 294 643 376 b 458 678 643 597 564 678 l 233 678 l 233 294 l 458 294 "},"Q":{"ha":1118,"x_min":0,"x_max":0,"o":"m 1060 486 b 922 140 1060 351 1007 231 l 1029 33 l 940 -47 l 831 64 b 556 -18 751 13 657 -18 b 53 486 278 -18 53 207 b 556 990 53 767 278 990 b 1060 486 833 990 1060 767 m 556 108 b 739 156 622 108 685 125 l 544 351 l 633 431 l 833 231 b 931 486 894 297 931 386 b 556 865 931 700 764 865 b 181 486 347 865 181 700 b 556 108 181 274 347 108 "},"R":{"ha":849,"x_min":0,"x_max":0,"o":"m 463 372 l 233 372 l 233 0 l 104 0 l 104 972 l 493 972 b 796 671 660 972 796 838 b 594 389 796 543 711 431 l 824 0 l 681 0 m 233 489 l 493 489 b 667 671 589 489 667 571 b 493 851 667 771 589 851 l 233 851 "},"Ŕ":{"ha":849,"x_min":0,"x_max":0,"o":"m 457 1067 l 340 1067 l 451 1250 l 597 1250 m 463 372 l 233 372 l 233 0 l 104 0 l 104 972 l 493 972 b 796 671 660 972 796 838 b 594 389 796 543 711 431 l 824 0 l 681 0 m 233 489 l 493 489 b 667 671 589 489 667 571 b 493 851 667 771 589 851 l 233 851 "},"Ř":{"ha":849,"x_min":0,"x_max":0,"o":"m 208 1250 l 338 1250 l 422 1138 l 507 1250 l 636 1250 l 489 1063 l 356 1063 m 463 372 l 233 372 l 233 0 l 104 0 l 104 972 l 493 972 b 796 671 660 972 796 838 b 594 389 796 543 711 431 l 824 0 l 681 0 m 233 489 l 493 489 b 667 671 589 489 667 571 b 493 851 667 771 589 851 l 233 851 "},"Ŗ":{"ha":849,"x_min":0,"x_max":0,"o":"m 824 0 l 681 0 l 463 372 l 233 372 l 233 0 l 104 0 l 104 972 l 493 972 b 796 671 660 972 796 838 b 594 389 796 543 711 431 m 233 489 l 493 489 b 667 671 589 489 667 571 b 493 851 667 771 589 851 l 233 851 m 400 -94 l 518 -94 l 476 -344 l 386 -344 "},"S":{"ha":803,"x_min":0,"x_max":0,"o":"m 418 -18 b 50 221 233 -18 101 75 l 161 285 b 421 108 196 178 279 108 b 626 258 558 108 626 171 b 397 436 626 358 540 392 b 92 715 242 486 92 535 b 397 990 92 890 235 990 b 726 778 557 990 672 900 l 618 715 b 397 865 583 799 515 865 b 221 721 293 865 221 810 b 425 554 221 631 289 597 b 754 261 594 499 754 449 b 418 -18 754 90 617 -18 "},"Ś":{"ha":803,"x_min":0,"x_max":0,"o":"m 431 1071 l 571 1254 l 425 1254 l 314 1071 m 418 -18 b 50 221 233 -18 101 75 l 161 285 b 421 108 196 178 279 108 b 626 258 558 108 626 171 b 397 436 626 358 540 392 b 92 715 242 486 92 535 b 397 990 92 890 235 990 b 726 778 557 990 672 900 l 618 715 b 397 865 583 799 515 865 b 221 721 293 865 221 810 b 425 554 221 631 289 597 b 754 261 594 499 754 449 b 418 -18 754 90 617 -18 "},"Š":{"ha":803,"x_min":0,"x_max":0,"o":"m 182 1254 l 311 1254 l 396 1142 l 481 1254 l 610 1254 l 463 1067 l 329 1067 m 425 554 b 754 261 594 499 754 449 b 418 -18 754 90 617 -18 b 50 221 233 -18 101 75 l 161 285 b 421 108 196 178 279 108 b 626 258 558 108 626 171 b 397 436 626 358 540 392 b 92 715 242 486 92 535 b 397 990 92 890 235 990 b 726 778 557 990 672 900 l 618 715 b 397 865 583 799 515 865 b 221 721 293 865 221 810 b 425 554 221 631 289 597 "},"Ş":{"ha":803,"x_min":0,"x_max":0,"o":"m 754 261 b 460 -17 754 103 636 -3 l 460 -62 b 578 -174 528 -76 578 -115 b 286 -300 578 -249 519 -314 l 286 -208 b 472 -165 411 -218 472 -200 b 357 -115 472 -132 429 -119 l 357 -14 b 50 221 204 4 96 92 l 161 285 b 421 108 196 178 279 108 b 626 258 558 108 626 171 b 397 436 626 358 540 392 b 92 715 242 486 92 535 b 397 990 92 890 235 990 b 726 778 557 990 672 900 l 618 715 b 397 865 583 799 515 865 b 221 721 293 865 221 810 b 425 554 221 631 289 597 b 754 261 594 499 754 449 "},"Ș":{"ha":803,"x_min":0,"x_max":0,"o":"m 418 -18 b 50 221 233 -18 101 75 l 161 285 b 421 108 196 178 279 108 b 626 258 558 108 626 171 b 397 436 626 358 540 392 b 92 715 242 486 92 535 b 397 990 92 890 235 990 b 726 778 557 990 672 900 l 618 715 b 397 865 583 799 515 865 b 221 721 293 865 221 810 b 425 554 221 631 289 597 b 754 261 594 499 754 449 b 418 -18 754 90 617 -18 m 486 -94 l 368 -94 l 354 -344 l 444 -344 "},"T":{"ha":750,"x_min":0,"x_max":0,"o":"m 726 850 l 439 850 l 439 0 l 311 0 l 311 850 l 25 850 l 25 972 l 726 972 "},"Ŧ":{"ha":750,"x_min":0,"x_max":0,"o":"m 439 850 l 439 542 l 629 542 l 629 425 l 439 425 l 439 0 l 311 0 l 311 425 l 122 425 l 122 542 l 311 542 l 311 850 l 25 850 l 25 972 l 726 972 l 726 850 "},"Ť":{"ha":750,"x_min":0,"x_max":0,"o":"m 160 1250 l 289 1250 l 374 1138 l 458 1250 l 588 1250 l 440 1063 l 307 1063 m 726 850 l 439 850 l 439 0 l 311 0 l 311 850 l 25 850 l 25 972 l 726 972 "},"Ţ":{"ha":750,"x_min":0,"x_max":0,"o":"m 726 850 l 439 850 l 439 0 l 311 0 l 311 850 l 25 850 l 25 972 l 726 972 m 319 -94 l 438 -94 l 396 -344 l 306 -344 "},"Ț":{"ha":750,"x_min":0,"x_max":0,"o":"m 726 850 l 439 850 l 439 0 l 311 0 l 311 850 l 25 850 l 25 972 l 726 972 m 319 -94 l 438 -94 l 396 -344 l 306 -344 "},"U":{"ha":914,"x_min":0,"x_max":0,"o":"m 457 -18 b 92 326 244 -18 92 115 l 92 972 l 221 972 l 221 332 b 457 108 221 197 301 108 b 693 332 613 108 693 197 l 693 972 l 821 972 l 821 326 b 457 -18 821 115 669 -18 "},"Ú":{"ha":914,"x_min":0,"x_max":0,"o":"m 490 1067 l 631 1250 l 485 1250 l 374 1067 m 457 -18 b 92 326 244 -18 92 115 l 92 972 l 221 972 l 221 332 b 457 108 221 197 301 108 b 693 332 613 108 693 197 l 693 972 l 821 972 l 821 326 b 457 -18 821 115 669 -18 "},"Û":{"ha":914,"x_min":0,"x_max":0,"o":"m 371 1063 l 242 1063 l 389 1250 l 522 1250 l 669 1063 l 540 1063 l 456 1175 m 821 972 l 821 326 b 457 -18 821 115 669 -18 b 92 326 244 -18 92 115 l 92 972 l 221 972 l 221 332 b 457 108 221 197 301 108 b 693 332 613 108 693 197 l 693 972 "},"Ü":{"ha":914,"x_min":0,"x_max":0,"o":"m 325 1064 b 251 1138 285 1064 251 1097 b 325 1210 251 1178 285 1210 b 397 1138 365 1210 397 1178 b 325 1064 397 1097 365 1064 m 589 1064 b 515 1138 549 1064 515 1097 b 589 1210 515 1178 549 1210 b 661 1138 629 1210 661 1178 b 589 1064 661 1097 629 1064 m 457 -18 b 92 326 244 -18 92 115 l 92 972 l 221 972 l 221 332 b 457 108 221 197 301 108 b 693 332 613 108 693 197 l 693 972 l 821 972 l 821 326 b 457 -18 821 115 669 -18 "},"Ù":{"ha":914,"x_min":0,"x_max":0,"o":"m 439 1250 l 293 1250 l 433 1067 l 550 1067 m 457 -18 b 92 326 244 -18 92 115 l 92 972 l 221 972 l 221 332 b 457 108 221 197 301 108 b 693 332 613 108 693 197 l 693 972 l 821 972 l 821 326 b 457 -18 821 115 669 -18 "},"Ű":{"ha":914,"x_min":0,"x_max":0,"o":"m 378 1063 l 488 1247 l 357 1247 l 256 1063 m 590 1063 l 714 1247 l 583 1247 l 468 1063 m 457 -18 b 92 326 244 -18 92 115 l 92 972 l 221 972 l 221 332 b 457 108 221 197 301 108 b 693 332 613 108 693 197 l 693 972 l 821 972 l 821 326 b 457 -18 821 115 669 -18 "},"Ū":{"ha":914,"x_min":0,"x_max":0,"o":"m 269 1178 l 644 1178 l 644 1076 l 269 1076 m 457 -18 b 92 326 244 -18 92 115 l 92 972 l 221 972 l 221 332 b 457 108 221 197 301 108 b 693 332 613 108 693 197 l 693 972 l 821 972 l 821 326 b 457 -18 821 115 669 -18 "},"Ų":{"ha":914,"x_min":0,"x_max":0,"o":"m 821 972 l 821 326 b 694 56 821 208 774 115 b 543 -158 586 -46 543 -100 b 586 -200 542 -187 558 -200 b 638 -189 603 -200 619 -197 l 638 -278 b 546 -296 610 -289 582 -296 b 425 -185 469 -296 425 -253 b 507 -15 425 -133 454 -74 b 457 -18 492 -17 474 -18 b 92 326 244 -18 92 115 l 92 972 l 221 972 l 221 332 b 457 108 221 197 301 108 b 693 332 613 108 693 197 l 693 972 "},"Ů":{"ha":914,"x_min":0,"x_max":0,"o":"m 457 994 b 300 1143 364 994 300 1058 b 457 1290 300 1226 364 1290 b 614 1143 551 1290 614 1226 b 457 994 614 1058 551 994 m 457 1079 b 524 1143 501 1079 524 1107 b 457 1206 524 1178 501 1206 b 392 1143 415 1206 392 1178 b 457 1079 392 1107 415 1079 m 457 -18 b 92 326 244 -18 92 115 l 92 972 l 221 972 l 221 332 b 457 108 221 197 301 108 b 693 332 613 108 693 197 l 693 972 l 821 972 l 821 326 b 457 -18 821 115 669 -18 "},"V":{"ha":863,"x_min":0,"x_max":0,"o":"m 11 972 l 150 972 l 432 161 l 713 972 l 853 972 l 504 0 l 358 0 "},"W":{"ha":1389,"x_min":0,"x_max":0,"o":"m 35 972 l 171 972 l 393 172 l 629 972 l 760 972 l 996 172 l 1218 972 l 1354 972 l 1075 0 l 925 0 l 694 776 l 464 0 l 314 0 "},"Ẃ":{"ha":1389,"x_min":0,"x_max":0,"o":"m 742 1067 l 882 1250 l 736 1250 l 625 1067 m 35 972 l 171 972 l 393 172 l 629 972 l 760 972 l 996 172 l 1218 972 l 1354 972 l 1075 0 l 925 0 l 694 776 l 464 0 l 314 0 "},"Ŵ":{"ha":1389,"x_min":0,"x_max":0,"o":"m 622 1063 l 493 1063 l 640 1250 l 774 1250 l 921 1063 l 792 1063 l 707 1175 m 1354 972 l 1075 0 l 925 0 l 694 776 l 464 0 l 314 0 l 35 972 l 171 972 l 393 172 l 629 972 l 760 972 l 996 172 l 1218 972 "},"Ẅ":{"ha":1389,"x_min":0,"x_max":0,"o":"m 576 1064 b 503 1138 536 1064 503 1097 b 576 1210 503 1178 536 1210 b 649 1138 617 1210 649 1178 b 576 1064 649 1097 617 1064 m 840 1064 b 767 1138 800 1064 767 1097 b 840 1210 767 1178 800 1210 b 913 1138 881 1210 913 1178 b 840 1064 913 1097 881 1064 m 35 972 l 171 972 l 393 172 l 629 972 l 760 972 l 996 172 l 1218 972 l 1354 972 l 1075 0 l 925 0 l 694 776 l 464 0 l 314 0 "},"Ẁ":{"ha":1389,"x_min":0,"x_max":0,"o":"m 690 1250 l 544 1250 l 685 1067 l 801 1067 m 35 972 l 171 972 l 393 172 l 629 972 l 760 972 l 996 172 l 1218 972 l 1354 972 l 1075 0 l 925 0 l 694 776 l 464 0 l 314 0 "},"X":{"ha":819,"x_min":0,"x_max":0,"o":"m 649 0 l 410 383 l 171 0 l 25 0 l 338 500 l 43 972 l 189 972 l 410 618 l 631 972 l 776 972 l 483 501 l 796 0 "},"Y":{"ha":839,"x_min":0,"x_max":0,"o":"m 483 393 l 483 0 l 354 0 l 354 394 l 11 972 l 156 972 l 419 517 l 683 972 l 828 972 "},"Ý":{"ha":839,"x_min":0,"x_max":0,"o":"m 449 1067 l 332 1067 l 443 1250 l 589 1250 m 483 393 l 483 0 l 354 0 l 354 394 l 11 972 l 156 972 l 419 517 l 683 972 l 828 972 "},"Ŷ":{"ha":839,"x_min":0,"x_max":0,"o":"m 329 1063 l 200 1063 l 347 1250 l 481 1250 l 628 1063 l 499 1063 l 414 1175 m 483 393 l 483 0 l 354 0 l 354 394 l 11 972 l 156 972 l 419 517 l 683 972 l 828 972 "},"Ÿ":{"ha":839,"x_min":0,"x_max":0,"o":"m 283 1064 b 210 1138 243 1064 210 1097 b 283 1210 210 1178 243 1210 b 356 1138 324 1210 356 1178 b 283 1064 356 1097 324 1064 m 547 1064 b 474 1138 507 1064 474 1097 b 547 1210 474 1178 507 1210 b 619 1138 588 1210 619 1178 b 547 1064 619 1097 588 1064 m 483 393 l 483 0 l 354 0 l 354 394 l 11 972 l 156 972 l 419 517 l 683 972 l 828 972 "},"Ỳ":{"ha":839,"x_min":0,"x_max":0,"o":"m 392 1067 l 251 1250 l 397 1250 l 508 1067 m 483 393 l 483 0 l 354 0 l 354 394 l 11 972 l 156 972 l 419 517 l 683 972 l 828 972 "},"Z":{"ha":729,"x_min":0,"x_max":0,"o":"m 689 122 l 689 0 l 54 0 l 54 113 l 524 850 l 67 850 l 67 972 l 678 972 l 678 861 l 207 122 "},"Ź":{"ha":729,"x_min":0,"x_max":0,"o":"m 406 1067 l 289 1067 l 400 1250 l 546 1250 m 689 122 l 689 0 l 54 0 l 54 113 l 524 850 l 67 850 l 67 972 l 678 972 l 678 861 l 207 122 "},"Ž":{"ha":729,"x_min":0,"x_max":0,"o":"m 157 1250 l 286 1250 l 371 1138 l 456 1250 l 585 1250 l 438 1063 l 304 1063 m 689 122 l 689 0 l 54 0 l 54 113 l 524 850 l 67 850 l 67 972 l 678 972 l 678 861 l 207 122 "},"Ż":{"ha":729,"x_min":0,"x_max":0,"o":"m 372 1061 b 285 1147 324 1061 285 1100 b 372 1235 285 1196 324 1235 b 458 1147 419 1235 458 1196 b 372 1061 458 1100 419 1061 m 689 122 l 689 0 l 54 0 l 54 113 l 524 850 l 67 850 l 67 972 l 678 972 l 678 861 l 207 122 "},"a":{"ha":879,"x_min":0,"x_max":0,"o":"m 788 694 l 788 0 l 667 0 l 667 119 b 404 -18 611 35 522 -18 b 53 347 211 -18 53 142 b 404 713 53 553 211 713 b 667 575 522 713 611 660 l 667 694 m 419 99 b 667 347 560 99 667 206 b 419 596 667 489 560 596 b 174 347 281 596 174 489 b 419 99 174 206 281 99 "},"á":{"ha":879,"x_min":0,"x_max":0,"o":"m 458 789 l 342 789 l 453 972 l 599 972 m 788 694 l 788 0 l 667 0 l 667 119 b 404 -18 611 35 522 -18 b 53 347 211 -18 53 142 b 404 713 53 553 211 713 b 667 575 522 713 611 660 l 667 694 m 419 99 b 667 347 560 99 667 206 b 419 596 667 489 560 596 b 174 347 281 596 174 489 b 419 99 174 206 281 99 "},"ă":{"ha":879,"x_min":0,"x_max":0,"o":"m 425 774 b 218 961 299 774 218 842 l 331 961 b 425 871 331 897 364 871 b 519 961 486 871 519 897 l 632 961 b 425 774 632 842 554 774 m 788 694 l 788 0 l 667 0 l 667 119 b 404 -18 611 35 522 -18 b 53 347 211 -18 53 142 b 404 713 53 553 211 713 b 667 575 522 713 611 660 l 667 694 m 419 99 b 667 347 560 99 667 206 b 419 596 667 489 560 596 b 174 347 281 596 174 489 b 419 99 174 206 281 99 "},"â":{"ha":879,"x_min":0,"x_max":0,"o":"m 339 785 l 210 785 l 357 972 l 490 972 l 638 785 l 508 785 l 424 897 m 788 694 l 788 0 l 667 0 l 667 119 b 404 -18 611 35 522 -18 b 53 347 211 -18 53 142 b 404 713 53 553 211 713 b 667 575 522 713 611 660 l 667 694 m 419 99 b 667 347 560 99 667 206 b 419 596 667 489 560 596 b 174 347 281 596 174 489 b 419 99 174 206 281 99 "},"ä":{"ha":879,"x_min":0,"x_max":0,"o":"m 293 786 b 219 860 253 786 219 819 b 293 932 219 900 253 932 b 365 860 333 932 365 900 b 293 786 365 819 333 786 m 557 786 b 483 860 517 786 483 819 b 557 932 483 900 517 932 b 629 860 597 932 629 900 b 557 786 629 819 597 786 m 788 694 l 788 0 l 667 0 l 667 119 b 404 -18 611 35 522 -18 b 53 347 211 -18 53 142 b 404 713 53 553 211 713 b 667 575 522 713 611 660 l 667 694 m 419 99 b 667 347 560 99 667 206 b 419 596 667 489 560 596 b 174 347 281 596 174 489 b 419 99 174 206 281 99 "},"à":{"ha":879,"x_min":0,"x_max":0,"o":"m 401 789 l 261 972 l 407 972 l 518 789 m 788 694 l 788 0 l 667 0 l 667 119 b 404 -18 611 35 522 -18 b 53 347 211 -18 53 142 b 404 713 53 553 211 713 b 667 575 522 713 611 660 l 667 694 m 419 99 b 667 347 560 99 667 206 b 419 596 667 489 560 596 b 174 347 281 596 174 489 b 419 99 174 206 281 99 "},"ā":{"ha":879,"x_min":0,"x_max":0,"o":"m 613 799 l 238 799 l 238 900 l 613 900 m 788 694 l 788 0 l 667 0 l 667 119 b 404 -18 611 35 522 -18 b 53 347 211 -18 53 142 b 404 713 53 553 211 713 b 667 575 522 713 611 660 l 667 694 m 419 99 b 667 347 560 99 667 206 b 419 596 667 489 560 596 b 174 347 281 596 174 489 b 419 99 174 206 281 99 "},"ą":{"ha":879,"x_min":0,"x_max":0,"o":"m 788 0 b 692 -158 729 -56 692 -117 b 735 -200 692 -187 708 -200 b 788 -189 753 -200 769 -197 l 788 -278 b 694 -296 760 -289 732 -296 b 575 -185 619 -296 575 -253 b 667 4 575 -133 604 -68 l 667 119 b 404 -18 611 35 522 -18 b 53 347 211 -18 53 142 b 404 713 53 553 211 713 b 667 575 522 713 611 660 l 667 694 l 788 694 l 788 0 m 419 99 b 667 347 560 99 667 206 b 419 596 667 489 560 596 b 174 347 281 596 174 489 b 419 99 174 206 281 99 "},"å":{"ha":879,"x_min":0,"x_max":0,"o":"m 425 758 b 268 907 332 758 268 822 b 425 1054 268 990 332 1054 b 582 907 519 1054 582 990 b 425 758 582 822 519 758 m 425 969 b 360 907 383 969 360 942 b 425 843 360 871 383 843 b 492 907 469 843 492 871 b 425 969 492 942 469 969 m 788 694 l 788 0 l 667 0 l 667 119 b 404 -18 611 35 522 -18 b 53 347 211 -18 53 142 b 404 713 53 553 211 713 b 667 575 522 713 611 660 l 667 694 m 419 99 b 667 347 560 99 667 206 b 419 596 667 489 560 596 b 174 347 281 596 174 489 b 419 99 174 206 281 99 "},"ã":{"ha":879,"x_min":0,"x_max":0,"o":"m 418 829 b 318 796 351 878 318 893 l 217 796 b 431 933 217 983 328 1007 b 531 965 499 885 531 869 l 632 965 b 418 829 632 778 522 756 m 788 694 l 788 0 l 667 0 l 667 119 b 404 -18 611 35 522 -18 b 53 347 211 -18 53 142 b 404 713 53 553 211 713 b 667 575 522 713 611 660 l 667 694 m 419 99 b 667 347 560 99 667 206 b 419 596 667 489 560 596 b 174 347 281 596 174 489 b 419 99 174 206 281 99 "},"æ":{"ha":1422,"x_min":0,"x_max":0,"o":"m 792 292 b 1036 96 814 167 910 96 b 1240 197 1136 96 1206 140 l 1343 139 b 1051 -18 1282 44 1183 -18 b 783 118 932 -18 839 32 l 783 0 l 667 0 l 667 119 b 404 -18 611 35 522 -18 b 53 347 211 -18 53 142 b 404 713 53 553 211 713 b 667 575 522 713 611 660 l 667 694 l 783 694 l 783 576 b 1043 713 838 660 926 713 b 1375 346 1257 713 1375 540 b 1371 292 1375 328 1374 310 l 792 292 m 1031 599 b 792 399 897 599 810 519 l 1253 399 b 1031 599 1233 535 1138 599 m 419 99 b 667 347 560 99 667 206 b 419 596 667 489 560 596 b 174 347 281 596 174 489 b 419 99 174 206 281 99 "},"b":{"ha":879,"x_min":0,"x_max":0,"o":"m 475 713 b 826 347 668 713 826 553 b 475 -18 826 142 668 -18 b 213 119 357 -18 268 35 l 213 0 l 92 0 l 92 972 l 213 972 l 213 575 b 475 713 268 660 357 713 m 460 99 b 706 347 599 99 706 206 b 460 596 706 489 599 596 b 213 347 319 596 213 489 b 460 99 213 206 319 99 "},"c":{"ha":760,"x_min":0,"x_max":0,"o":"m 418 -18 b 53 347 208 -18 53 142 b 418 713 53 553 208 713 b 725 531 556 713 672 640 l 624 472 b 418 594 589 546 511 594 b 174 347 279 594 174 488 b 418 101 174 208 279 101 b 628 222 513 101 589 150 l 731 163 b 418 -18 672 54 554 -18 "},"ć":{"ha":760,"x_min":0,"x_max":0,"o":"m 440 789 l 581 972 l 435 972 l 324 789 m 418 -18 b 53 347 208 -18 53 142 b 418 713 53 553 208 713 b 725 531 556 713 672 640 l 624 472 b 418 594 589 546 511 594 b 174 347 279 594 174 488 b 418 101 174 208 279 101 b 628 222 513 101 589 150 l 731 163 b 418 -18 672 54 554 -18 "},"č":{"ha":760,"x_min":0,"x_max":0,"o":"m 192 972 l 321 972 l 406 860 l 490 972 l 619 972 l 472 785 l 339 785 m 731 163 b 418 -18 672 54 554 -18 b 53 347 208 -18 53 142 b 418 713 53 553 208 713 b 725 531 556 713 672 640 l 624 472 b 418 594 589 546 511 594 b 174 347 279 594 174 488 b 418 101 174 208 279 101 b 628 222 513 101 589 150 "},"ç":{"ha":760,"x_min":0,"x_max":0,"o":"m 731 163 b 469 -14 679 68 583 1 l 469 -62 b 588 -174 538 -76 588 -115 b 296 -300 588 -249 529 -314 l 296 -208 b 482 -165 421 -218 482 -200 b 367 -115 482 -132 439 -119 l 367 -15 b 53 347 183 8 53 158 b 418 713 53 553 208 713 b 725 531 556 713 672 640 l 624 472 b 418 594 589 546 511 594 b 174 347 279 594 174 488 b 418 101 174 208 279 101 b 628 222 513 101 589 150 l 731 163 "},"ċ":{"ha":760,"x_min":0,"x_max":0,"o":"m 407 783 b 319 869 358 783 319 822 b 407 957 319 918 358 957 b 493 869 454 957 493 918 b 407 783 493 822 454 783 m 418 -18 b 53 347 208 -18 53 142 b 418 713 53 553 208 713 b 725 531 556 713 672 640 l 624 472 b 418 594 589 546 511 594 b 174 347 279 594 174 488 b 418 101 174 208 279 101 b 628 222 513 101 589 150 l 731 163 b 418 -18 672 54 554 -18 "},"d":{"ha":879,"x_min":0,"x_max":0,"o":"m 788 972 l 788 0 l 667 0 l 667 119 b 404 -18 611 35 522 -18 b 53 347 211 -18 53 142 b 404 713 53 553 211 713 b 667 575 522 713 611 660 l 667 972 m 419 99 b 667 347 560 99 667 206 b 419 596 667 489 560 596 b 174 347 281 596 174 489 b 419 99 174 206 281 99 "},"ð":{"ha":807,"x_min":0,"x_max":0,"o":"m 692 514 b 756 319 729 461 756 396 b 404 -17 756 113 590 -17 b 53 319 218 -17 53 113 b 407 640 53 518 221 656 b 460 633 426 639 443 638 l 356 775 l 192 682 l 192 779 l 304 843 l 210 972 l 350 972 l 404 900 l 563 990 l 563 893 l 454 832 l 692 514 m 404 99 b 635 319 528 99 635 182 b 597 447 635 371 622 414 b 406 535 565 489 510 535 b 174 319 274 535 174 451 b 404 99 174 182 279 99 "},"ď":{"ha":990,"x_min":0,"x_max":0,"o":"m 667 972 l 788 972 l 788 0 l 667 0 l 667 119 b 404 -18 611 35 522 -18 b 53 347 211 -18 53 142 b 404 713 53 553 211 713 b 667 575 522 713 611 660 m 1004 972 l 963 722 l 874 722 l 888 972 m 419 99 b 667 347 560 99 667 206 b 419 596 667 489 560 596 b 174 347 281 596 174 489 b 419 99 174 206 281 99 "},"đ":{"ha":892,"x_min":0,"x_max":0,"o":"m 881 790 l 788 790 l 788 0 l 667 0 l 667 119 b 404 -18 611 35 522 -18 b 53 347 211 -18 53 142 b 404 713 53 553 211 713 b 667 575 522 713 611 660 l 667 790 l 426 790 l 426 879 l 667 879 l 667 972 l 788 972 l 788 879 l 881 879 m 419 99 b 667 347 560 99 667 206 b 419 596 667 489 560 596 b 174 347 281 596 174 489 b 419 99 174 206 281 99 "},"e":{"ha":810,"x_min":0,"x_max":0,"o":"m 176 292 b 428 96 200 167 299 96 b 628 197 524 96 593 140 l 731 139 b 425 -18 669 44 564 -18 b 53 347 201 -18 53 139 b 417 713 53 553 200 713 b 763 346 626 713 763 540 b 758 292 763 328 761 310 l 176 292 m 417 599 b 176 397 286 599 196 518 l 640 397 b 417 599 619 535 521 599 "},"é":{"ha":810,"x_min":0,"x_max":0,"o":"m 442 790 l 325 790 l 436 974 l 582 974 m 176 292 b 428 96 200 167 299 96 b 628 197 524 96 593 140 l 731 139 b 425 -18 669 44 564 -18 b 53 347 201 -18 53 139 b 417 713 53 553 200 713 b 763 346 626 713 763 540 b 758 292 763 328 761 310 l 176 292 m 417 599 b 176 397 286 599 196 518 l 640 397 b 417 599 619 535 521 599 "},"ě":{"ha":810,"x_min":0,"x_max":0,"o":"m 193 974 l 322 974 l 407 861 l 492 974 l 621 974 l 474 786 l 340 786 m 176 292 b 428 96 200 167 299 96 b 628 197 524 96 593 140 l 731 139 b 425 -18 669 44 564 -18 b 53 347 201 -18 53 139 b 417 713 53 553 200 713 b 763 346 626 713 763 540 b 758 292 763 328 761 310 l 176 292 m 417 599 b 176 397 286 599 196 518 l 640 397 b 417 599 619 535 521 599 "},"ê":{"ha":810,"x_min":0,"x_max":0,"o":"m 322 786 l 193 786 l 340 974 l 474 974 l 621 786 l 492 786 l 407 899 m 176 292 b 428 96 200 167 299 96 b 628 197 524 96 593 140 l 731 139 b 425 -18 669 44 564 -18 b 53 347 201 -18 53 139 b 417 713 53 553 200 713 b 763 346 626 713 763 540 b 758 292 763 328 761 310 l 176 292 m 417 599 b 176 397 286 599 196 518 l 640 397 b 417 599 619 535 521 599 "},"ë":{"ha":810,"x_min":0,"x_max":0,"o":"m 276 788 b 203 861 236 788 203 821 b 276 933 203 901 236 933 b 349 861 317 933 349 901 b 276 788 349 821 317 788 m 540 788 b 467 861 500 788 467 821 b 540 933 467 901 500 933 b 613 861 581 933 613 901 b 540 788 613 821 581 788 m 176 292 b 428 96 200 167 299 96 b 628 197 524 96 593 140 l 731 139 b 425 -18 669 44 564 -18 b 53 347 201 -18 53 139 b 417 713 53 553 200 713 b 763 346 626 713 763 540 b 758 292 763 328 761 310 l 176 292 m 417 599 b 176 397 286 599 196 518 l 640 397 b 417 599 619 535 521 599 "},"ė":{"ha":810,"x_min":0,"x_max":0,"o":"m 408 785 b 321 871 360 785 321 824 b 408 958 321 919 360 958 b 494 871 456 958 494 919 b 408 785 494 824 456 785 m 176 292 b 428 96 200 167 299 96 b 628 197 524 96 593 140 l 731 139 b 425 -18 669 44 564 -18 b 53 347 201 -18 53 139 b 417 713 53 553 200 713 b 763 346 626 713 763 540 b 758 292 763 328 761 310 l 176 292 m 417 599 b 176 397 286 599 196 518 l 640 397 b 417 599 619 535 521 599 "},"è":{"ha":810,"x_min":0,"x_max":0,"o":"m 385 790 l 244 974 l 390 974 l 501 790 m 176 292 b 428 96 200 167 299 96 b 628 197 524 96 593 140 l 731 139 b 425 -18 669 44 564 -18 b 53 347 201 -18 53 139 b 417 713 53 553 200 713 b 763 346 626 713 763 540 b 758 292 763 328 761 310 l 176 292 m 417 599 b 176 397 286 599 196 518 l 640 397 b 417 599 619 535 521 599 "},"ē":{"ha":810,"x_min":0,"x_max":0,"o":"m 596 800 l 221 800 l 221 901 l 596 901 m 176 292 b 428 96 200 167 299 96 b 628 197 524 96 593 140 l 731 139 b 425 -18 669 44 564 -18 b 53 347 201 -18 53 139 b 417 713 53 553 200 713 b 763 346 626 713 763 540 b 758 292 763 328 761 310 l 176 292 m 417 599 b 176 397 286 599 196 518 l 640 397 b 417 599 619 535 521 599 "},"ę":{"ha":810,"x_min":0,"x_max":0,"o":"m 176 292 b 428 96 200 167 299 96 b 628 197 524 96 593 140 l 731 139 b 676 75 715 115 697 94 b 531 -158 564 -49 531 -119 b 574 -200 531 -187 547 -200 b 625 -189 592 -200 608 -197 l 625 -278 b 533 -296 599 -289 569 -296 b 414 -185 458 -296 414 -253 b 503 -11 414 -137 439 -74 b 425 -18 478 -15 453 -18 b 53 347 201 -18 53 139 b 417 713 53 553 200 713 b 763 346 626 713 763 540 b 758 292 763 328 761 310 l 176 292 m 417 599 b 176 397 286 599 196 518 l 640 397 b 417 599 619 535 521 599 "},"f":{"ha":449,"x_min":0,"x_max":0,"o":"m 449 874 b 265 715 328 883 265 836 l 265 694 l 449 694 l 449 578 l 265 578 l 265 0 l 144 0 l 144 578 l 33 578 l 33 694 l 144 694 l 144 715 b 449 990 144 900 250 1004 l 449 874 "},"g":{"ha":879,"x_min":0,"x_max":0,"o":"m 788 694 l 788 29 b 433 -296 788 -187 614 -296 b 104 -126 278 -296 161 -236 l 210 -67 b 436 -183 242 -132 300 -183 b 668 29 581 -183 668 -101 l 668 128 b 407 -11 613 43 524 -11 b 53 351 210 -11 53 149 b 407 713 53 553 210 713 b 668 575 524 713 613 660 l 668 694 m 421 104 b 668 351 561 104 668 211 b 421 597 668 490 561 597 b 174 351 281 597 174 490 b 421 104 174 211 281 104 "},"ğ":{"ha":879,"x_min":0,"x_max":0,"o":"m 422 778 b 215 965 296 778 215 846 l 328 965 b 422 875 328 901 361 875 b 517 965 483 875 517 901 l 629 965 b 422 778 629 846 551 778 m 788 694 l 788 29 b 433 -296 788 -187 614 -296 b 104 -126 278 -296 161 -236 l 210 -67 b 436 -183 242 -132 300 -183 b 668 29 581 -183 668 -101 l 668 128 b 407 -11 613 43 524 -11 b 53 351 210 -11 53 149 b 407 713 53 553 210 713 b 668 575 524 713 613 660 l 668 694 m 421 104 b 668 351 561 104 668 211 b 421 597 668 490 561 597 b 174 351 281 597 174 490 b 421 104 174 211 281 104 "},"ģ":{"ha":879,"x_min":0,"x_max":0,"o":"m 472 817 l 354 817 l 396 1067 l 486 1067 m 788 694 l 788 29 b 433 -296 788 -187 614 -296 b 104 -126 278 -296 161 -236 l 210 -67 b 436 -183 242 -132 300 -183 b 668 29 581 -183 668 -101 l 668 128 b 407 -11 613 43 524 -11 b 53 351 210 -11 53 149 b 407 713 53 553 210 713 b 668 575 524 713 613 660 l 668 694 m 421 104 b 668 351 561 104 668 211 b 421 597 668 490 561 597 b 174 351 281 597 174 490 b 421 104 174 211 281 104 "},"ġ":{"ha":879,"x_min":0,"x_max":0,"o":"m 422 788 b 335 874 374 788 335 826 b 422 961 335 922 374 961 b 508 874 469 961 508 922 b 422 788 508 826 469 788 m 788 694 l 788 29 b 433 -296 788 -187 614 -296 b 104 -126 278 -296 161 -236 l 210 -67 b 436 -183 242 -132 300 -183 b 668 29 581 -183 668 -101 l 668 128 b 407 -11 613 43 524 -11 b 53 351 210 -11 53 149 b 407 713 53 553 210 713 b 668 575 524 713 613 660 l 668 694 m 421 104 b 668 351 561 104 668 211 b 421 597 668 490 561 597 b 174 351 281 597 174 490 b 421 104 174 211 281 104 "},"h":{"ha":783,"x_min":0,"x_max":0,"o":"m 438 713 b 707 426 600 713 707 604 l 707 0 l 586 0 l 586 419 b 414 597 586 533 521 597 b 213 368 303 597 213 532 l 213 0 l 92 0 l 92 972 l 213 972 l 213 594 b 438 713 264 676 340 713 "},"ħ":{"ha":796,"x_min":0,"x_max":0,"o":"m 450 713 b 719 426 613 713 719 604 l 719 0 l 599 0 l 599 419 b 426 597 599 533 533 597 b 225 368 315 597 225 532 l 225 0 l 104 0 l 104 790 l 11 790 l 11 879 l 104 879 l 104 972 l 225 972 l 225 879 l 424 879 l 424 790 l 225 790 l 225 594 b 450 713 276 676 353 713 "},"i":{"ha":306,"x_min":0,"x_max":0,"o":"m 153 821 b 71 901 107 821 71 857 b 153 983 71 946 107 983 b 233 901 197 983 233 946 b 153 821 233 857 197 821 m 92 694 l 213 694 l 213 0 l 92 0 "},"ı":{"ha":306,"x_min":0,"x_max":0,"o":"m 92 694 l 213 694 l 213 0 l 92 0 "},"í":{"ha":306,"x_min":0,"x_max":0,"o":"m 213 785 l 304 972 l 161 972 l 96 785 m 92 694 l 213 694 l 213 0 l 92 0 "},"î":{"ha":306,"x_min":0,"x_max":0,"o":"m 342 785 l 214 785 l 153 882 l 92 785 l -37 785 l 86 972 l 219 972 m 92 694 l 213 694 l 213 0 l 92 0 "},"ï":{"ha":306,"x_min":0,"x_max":0,"o":"m 49 789 b -25 861 8 789 -25 821 b 49 935 -25 901 8 935 b 121 861 89 935 121 901 b 49 789 121 821 89 789 m 257 789 b 183 861 217 789 183 821 b 257 935 183 901 217 935 b 329 861 297 935 329 901 b 257 789 329 821 297 789 m 92 694 l 213 694 l 213 0 l 92 0 "},"ì":{"ha":306,"x_min":0,"x_max":0,"o":"m 143 972 l 1 972 l 93 785 l 210 785 m 92 0 l 92 694 l 213 694 l 213 0 "},"ī":{"ha":306,"x_min":0,"x_max":0,"o":"m 7 904 l 299 904 l 299 799 l 7 799 m 92 694 l 213 694 l 213 0 l 92 0 "},"į":{"ha":306,"x_min":0,"x_max":0,"o":"m 153 821 b 71 901 107 821 71 857 b 153 983 71 946 107 983 b 233 901 197 983 233 946 b 153 821 233 857 197 821 m 203 -200 b 254 -189 219 -200 236 -197 l 254 -278 b 163 -296 226 -289 199 -296 b 42 -174 86 -296 42 -242 b 96 0 42 -126 54 -78 l 92 0 l 92 694 l 213 694 l 213 0 b 160 -149 179 -54 160 -107 b 203 -200 158 -176 175 -200 "},"j":{"ha":335,"x_min":0,"x_max":0,"o":"m 183 821 b 101 901 138 821 101 857 b 183 983 101 946 138 983 b 264 901 228 983 264 946 b 183 821 264 857 228 821 m 122 694 l 243 694 l 243 -42 b -25 -296 243 -221 150 -308 l -25 -179 b 122 -42 75 -187 122 -150 "},"k":{"ha":700,"x_min":0,"x_max":0,"o":"m 529 0 l 213 329 l 213 0 l 92 0 l 92 972 l 213 972 l 213 388 l 513 694 l 668 694 l 336 358 l 679 0 "},"ķ":{"ha":700,"x_min":0,"x_max":0,"o":"m 679 0 l 529 0 l 213 329 l 213 0 l 92 0 l 92 972 l 213 972 l 213 388 l 513 694 l 668 694 l 336 358 m 319 -94 l 438 -94 l 396 -344 l 306 -344 "},"l":{"ha":306,"x_min":0,"x_max":0,"o":"m 92 1014 l 213 1014 l 213 0 l 92 0 "},"ĺ":{"ha":306,"x_min":0,"x_max":0,"o":"m 208 1067 l 349 1250 l 203 1250 l 92 1067 m 92 1014 l 213 1014 l 213 0 l 92 0 "},"ľ":{"ha":415,"x_min":0,"x_max":0,"o":"m 92 1014 l 213 1014 l 213 0 l 92 0 m 429 1014 l 313 1014 l 299 764 l 388 764 "},"ļ":{"ha":306,"x_min":0,"x_max":0,"o":"m 92 1014 l 213 1014 l 213 0 l 92 0 m 214 -94 l 96 -94 l 82 -344 l 172 -344 "},"ł":{"ha":344,"x_min":0,"x_max":0,"o":"m 319 538 l 232 478 l 232 0 l 111 0 l 111 394 l 25 336 l 25 451 l 111 510 l 111 1014 l 232 1014 l 232 593 l 319 653 "},"m":{"ha":1179,"x_min":0,"x_max":0,"o":"m 842 713 b 1103 432 996 713 1103 606 l 1103 0 l 982 0 l 982 428 b 829 597 982 538 921 597 b 658 386 732 597 658 536 l 658 0 l 538 0 l 538 428 b 390 597 538 538 481 597 b 213 386 297 597 213 536 l 213 0 l 92 0 l 92 694 l 213 694 l 213 601 b 419 713 263 679 335 713 b 624 594 514 713 583 669 b 842 713 672 674 751 713 "},"n":{"ha":783,"x_min":0,"x_max":0,"o":"m 438 713 b 707 426 600 713 707 604 l 707 0 l 586 0 l 586 419 b 414 597 586 533 521 597 b 213 368 303 597 213 532 l 213 0 l 92 0 l 92 694 l 213 694 l 213 594 b 438 713 264 676 340 713 "},"ń":{"ha":783,"x_min":0,"x_max":0,"o":"m 440 793 l 324 793 l 435 976 l 581 976 m 438 713 b 707 426 600 713 707 604 l 707 0 l 586 0 l 586 419 b 414 597 586 533 521 597 b 213 368 303 597 213 532 l 213 0 l 92 0 l 92 694 l 213 694 l 213 594 b 438 713 264 676 340 713 "},"ň":{"ha":783,"x_min":0,"x_max":0,"o":"m 192 976 l 321 976 l 406 864 l 490 976 l 619 976 l 472 789 l 339 789 m 438 713 b 707 426 600 713 707 604 l 707 0 l 586 0 l 586 419 b 414 597 586 533 521 597 b 213 368 303 597 213 532 l 213 0 l 92 0 l 92 694 l 213 694 l 213 594 b 438 713 264 676 340 713 "},"ņ":{"ha":783,"x_min":0,"x_max":0,"o":"m 438 713 b 707 426 600 713 707 604 l 707 0 l 586 0 l 586 419 b 414 597 586 533 521 597 b 213 368 303 597 213 532 l 213 0 l 92 0 l 92 694 l 213 694 l 213 594 b 438 713 264 676 340 713 m 351 -94 l 469 -94 l 428 -344 l 338 -344 "},"ŋ":{"ha":783,"x_min":0,"x_max":0,"o":"m 438 713 b 707 426 600 713 707 604 l 707 -42 b 443 -296 707 -215 615 -310 l 443 -179 b 586 -42 538 -189 586 -151 l 586 419 b 414 597 586 533 521 597 b 213 368 303 597 213 532 l 213 0 l 92 0 l 92 694 l 213 694 l 213 594 b 438 713 264 676 340 713 "},"ñ":{"ha":783,"x_min":0,"x_max":0,"o":"m 400 833 b 300 800 333 882 300 897 l 199 800 b 413 938 199 988 310 1011 b 513 969 481 889 513 874 l 614 969 b 400 833 614 782 504 760 m 438 713 b 707 426 600 713 707 604 l 707 0 l 586 0 l 586 419 b 414 597 586 533 521 597 b 213 368 303 597 213 532 l 213 0 l 92 0 l 92 694 l 213 694 l 213 594 b 438 713 264 676 340 713 "},"o":{"ha":836,"x_min":0,"x_max":0,"o":"m 418 -18 b 53 347 215 -18 53 142 b 418 713 53 553 215 713 b 785 347 621 713 785 553 b 418 -18 785 142 621 -18 m 418 100 b 664 347 557 100 664 207 b 418 594 664 488 557 594 b 174 347 281 594 174 488 b 418 100 174 207 281 100 "},"ó":{"ha":836,"x_min":0,"x_max":0,"o":"m 451 793 l 592 976 l 446 976 l 335 793 m 418 -18 b 53 347 215 -18 53 142 b 418 713 53 553 215 713 b 785 347 621 713 785 553 b 418 -18 785 142 621 -18 m 418 100 b 664 347 557 100 664 207 b 418 594 664 488 557 594 b 174 347 281 594 174 488 b 418 100 174 207 281 100 "},"ô":{"ha":836,"x_min":0,"x_max":0,"o":"m 332 789 l 203 789 l 350 976 l 483 976 l 631 789 l 501 789 l 417 901 m 418 713 b 785 347 621 713 785 553 b 418 -18 785 142 621 -18 b 53 347 215 -18 53 142 b 418 713 53 553 215 713 m 418 100 b 664 347 557 100 664 207 b 418 594 664 488 557 594 b 174 347 281 594 174 488 b 418 100 174 207 281 100 "},"ö":{"ha":836,"x_min":0,"x_max":0,"o":"m 286 790 b 213 864 246 790 213 824 b 286 936 213 904 246 936 b 358 864 326 936 358 904 b 286 790 358 824 326 790 m 550 790 b 476 864 510 790 476 824 b 550 936 476 904 510 936 b 622 864 590 936 622 904 b 550 790 622 824 590 790 m 418 -18 b 53 347 215 -18 53 142 b 418 713 53 553 215 713 b 785 347 621 713 785 553 b 418 -18 785 142 621 -18 m 418 100 b 664 347 557 100 664 207 b 418 594 664 488 557 594 b 174 347 281 594 174 488 b 418 100 174 207 281 100 "},"ò":{"ha":836,"x_min":0,"x_max":0,"o":"m 400 976 l 254 976 l 394 793 l 511 793 m 418 -18 b 53 347 215 -18 53 142 b 418 713 53 553 215 713 b 785 347 621 713 785 553 b 418 -18 785 142 621 -18 m 418 100 b 664 347 557 100 664 207 b 418 594 664 488 557 594 b 174 347 281 594 174 488 b 418 100 174 207 281 100 "},"ő":{"ha":836,"x_min":0,"x_max":0,"o":"m 339 789 l 449 974 l 318 974 l 217 789 m 551 789 l 675 974 l 544 974 l 429 789 m 418 -18 b 53 347 215 -18 53 142 b 418 713 53 553 215 713 b 785 347 621 713 785 553 b 418 -18 785 142 621 -18 m 418 100 b 664 347 557 100 664 207 b 418 594 664 488 557 594 b 174 347 281 594 174 488 b 418 100 174 207 281 100 "},"ō":{"ha":836,"x_min":0,"x_max":0,"o":"m 231 904 l 606 904 l 606 803 l 231 803 m 418 -18 b 53 347 215 -18 53 142 b 418 713 53 553 215 713 b 785 347 621 713 785 553 b 418 -18 785 142 621 -18 m 418 100 b 664 347 557 100 664 207 b 418 594 664 488 557 594 b 174 347 281 594 174 488 b 418 100 174 207 281 100 "},"ø":{"ha":836,"x_min":0,"x_max":0,"o":"m 686 599 b 785 347 747 533 785 446 b 418 -18 785 142 621 -18 b 204 49 339 -18 265 7 l 154 -8 l 92 28 l 151 96 b 53 347 90 161 53 249 b 418 713 53 553 215 713 b 632 644 499 713 572 688 l 683 703 l 746 667 l 686 599 m 174 347 b 231 186 174 285 194 229 l 554 556 b 418 594 515 581 469 594 b 174 347 281 594 174 488 m 418 100 b 664 347 557 100 664 207 b 607 508 664 410 643 465 l 283 139 b 418 100 322 114 368 100 "},"õ":{"ha":836,"x_min":0,"x_max":0,"o":"m 210 800 b 424 938 210 988 321 1011 b 524 969 492 889 524 874 l 625 969 b 411 833 625 782 515 760 b 311 800 344 882 311 897 l 210 800 m 418 -18 b 53 347 215 -18 53 142 b 418 713 53 553 215 713 b 785 347 621 713 785 553 b 418 -18 785 142 621 -18 m 418 100 b 664 347 557 100 664 207 b 418 594 664 488 557 594 b 174 347 281 594 174 488 b 418 100 174 207 281 100 "},"œ":{"ha":1421,"x_min":0,"x_max":0,"o":"m 788 292 b 1036 96 811 164 911 96 b 1239 197 1135 96 1204 140 l 1342 139 b 1039 -18 1281 44 1175 -18 b 724 169 889 -18 778 56 b 417 -18 667 57 556 -18 b 53 347 207 -18 53 142 b 417 713 53 553 207 713 b 724 525 556 713 667 638 b 1032 713 778 638 886 713 b 1374 346 1240 713 1374 540 b 1369 292 1374 328 1372 310 l 788 292 m 1028 599 b 788 399 900 599 808 519 l 1251 399 b 1028 599 1231 535 1132 599 m 418 100 b 664 347 557 100 664 207 b 418 594 664 488 557 594 b 174 347 274 594 174 488 b 418 100 174 207 274 100 "},"p":{"ha":879,"x_min":0,"x_max":0,"o":"m 475 713 b 826 347 668 713 826 553 b 475 -18 826 142 668 -18 b 213 119 357 -18 268 35 l 213 -278 l 92 -278 l 92 694 l 213 694 l 213 575 b 475 713 268 660 357 713 m 460 99 b 706 347 599 99 706 206 b 460 596 706 489 599 596 b 213 347 319 596 213 489 b 460 99 213 206 319 99 "},"þ":{"ha":879,"x_min":0,"x_max":0,"o":"m 475 713 b 826 347 668 713 826 553 b 475 -18 826 142 668 -18 b 213 119 357 -18 268 35 l 213 -278 l 92 -278 l 92 972 l 213 972 l 213 575 b 475 713 268 660 357 713 m 460 99 b 706 347 599 99 706 206 b 460 596 706 489 599 596 b 213 347 319 596 213 489 b 460 99 213 206 319 99 "},"q":{"ha":879,"x_min":0,"x_max":0,"o":"m 788 694 l 788 -278 l 667 -278 l 667 119 b 404 -18 611 35 522 -18 b 53 347 211 -18 53 142 b 404 713 53 553 211 713 b 667 575 522 713 611 660 l 667 694 m 419 99 b 667 347 560 99 667 206 b 419 596 667 489 560 596 b 174 347 281 596 174 489 b 419 99 174 206 281 99 "},"r":{"ha":456,"x_min":0,"x_max":0,"o":"m 213 578 b 429 707 257 675 342 707 l 429 581 b 213 368 325 585 213 532 l 213 0 l 92 0 l 92 694 l 213 694 l 213 578 "},"ŕ":{"ha":456,"x_min":0,"x_max":0,"o":"m 292 789 l 175 789 l 286 972 l 432 972 m 213 578 b 429 707 257 675 342 707 l 429 581 b 213 368 325 585 213 532 l 213 0 l 92 0 l 92 694 l 213 694 l 213 578 "},"ř":{"ha":456,"x_min":0,"x_max":0,"o":"m 43 972 l 172 972 l 257 860 l 342 972 l 471 972 l 324 785 l 190 785 m 213 578 b 429 707 257 675 342 707 l 429 581 b 213 368 325 585 213 532 l 213 0 l 92 0 l 92 694 l 213 694 l 213 578 "},"ŗ":{"ha":456,"x_min":0,"x_max":0,"o":"m 213 578 b 429 707 257 675 342 707 l 429 581 b 213 368 325 585 213 532 l 213 0 l 92 0 l 92 694 l 213 694 l 213 578 m 96 -94 l 214 -94 l 172 -344 l 82 -344 "},"s":{"ha":636,"x_min":0,"x_max":0,"o":"m 196 507 b 585 190 196 358 585 446 b 325 -18 585 61 474 -18 b 49 144 186 -18 89 49 l 153 204 b 325 96 175 138 239 96 b 463 190 399 96 463 122 b 74 506 463 339 74 254 b 319 713 74 628 179 713 b 569 568 433 713 525 658 l 468 511 b 319 600 442 574 381 600 b 196 507 257 600 196 569 "},"ś":{"ha":636,"x_min":0,"x_max":0,"o":"m 353 793 l 236 793 l 347 976 l 493 976 m 196 507 b 585 190 196 358 585 446 b 325 -18 585 61 474 -18 b 49 144 186 -18 89 49 l 153 204 b 325 96 175 138 239 96 b 463 190 399 96 463 122 b 74 506 463 339 74 254 b 319 713 74 628 179 713 b 569 568 433 713 525 658 l 468 511 b 319 600 442 574 381 600 b 196 507 257 600 196 569 "},"š":{"ha":636,"x_min":0,"x_max":0,"o":"m 104 976 l 233 976 l 318 864 l 403 976 l 532 976 l 385 789 l 251 789 m 196 507 b 585 190 196 358 585 446 b 325 -18 585 61 474 -18 b 49 144 186 -18 89 49 l 153 204 b 325 96 175 138 239 96 b 463 190 399 96 463 122 b 74 506 463 339 74 254 b 319 713 74 628 179 713 b 569 568 433 713 525 658 l 468 511 b 319 600 442 574 381 600 b 196 507 257 600 196 569 "},"ş":{"ha":636,"x_min":0,"x_max":0,"o":"m 585 190 b 376 -15 585 76 499 1 l 376 -62 b 494 -174 444 -76 494 -115 b 203 -300 494 -249 436 -314 l 203 -208 b 389 -165 328 -218 389 -200 b 274 -115 389 -132 346 -119 l 274 -15 b 49 144 163 0 83 61 l 153 204 b 325 96 175 138 239 96 b 463 190 399 96 463 122 b 74 506 463 339 74 254 b 319 713 74 628 179 713 b 569 568 433 713 525 658 l 468 511 b 319 600 442 574 381 600 b 196 507 257 600 196 569 b 585 190 196 358 585 446 "},"ș":{"ha":636,"x_min":0,"x_max":0,"o":"m 196 507 b 585 190 196 358 585 446 b 325 -18 585 61 474 -18 b 49 144 186 -18 89 49 l 153 204 b 325 96 175 138 239 96 b 463 190 399 96 463 122 b 74 506 463 339 74 254 b 319 713 74 628 179 713 b 569 568 433 713 525 658 l 468 511 b 319 600 442 574 381 600 b 196 507 257 600 196 569 m 285 -94 l 403 -94 l 361 -344 l 271 -344 "},"ß":{"ha":726,"x_min":0,"x_max":0,"o":"m 397 103 b 579 208 515 94 579 128 b 392 546 579 329 392 433 b 501 760 392 628 501 678 b 369 876 501 832 447 876 b 213 713 290 876 213 833 l 213 0 l 92 0 l 92 713 b 372 990 92 888 208 990 b 622 769 531 990 622 889 b 514 549 622 660 514 607 b 700 197 514 460 700 371 b 397 -6 700 69 606 -22 "},"t":{"ha":525,"x_min":0,"x_max":0,"o":"m 285 578 l 285 201 b 469 108 285 96 346 103 l 469 0 b 164 201 261 -28 164 28 l 164 578 l 26 578 l 26 694 l 164 694 l 164 853 l 285 889 l 285 694 l 469 694 l 469 578 "},"ŧ":{"ha":525,"x_min":0,"x_max":0,"o":"m 285 578 l 285 406 l 411 406 l 411 308 l 285 308 l 285 201 b 469 108 285 96 346 103 l 469 0 b 164 201 261 -28 164 28 l 164 308 l 75 308 l 75 406 l 164 406 l 164 578 l 26 578 l 26 694 l 164 694 l 164 853 l 285 889 l 285 694 l 469 694 l 469 578 "},"ť":{"ha":535,"x_min":0,"x_max":0,"o":"m 446 765 l 356 765 l 369 999 l 488 999 m 285 694 l 469 694 l 469 578 l 285 578 l 285 201 b 469 108 285 96 346 103 l 469 0 b 164 201 261 -28 164 28 l 164 578 l 26 578 l 26 694 l 164 694 l 164 853 l 285 889 "},"ţ":{"ha":525,"x_min":0,"x_max":0,"o":"m 285 578 l 285 201 b 469 108 285 96 346 103 l 469 0 b 164 201 261 -28 164 28 l 164 578 l 26 578 l 26 694 l 164 694 l 164 853 l 285 889 l 285 694 l 469 694 l 469 578 m 268 -94 l 386 -94 l 344 -344 l 254 -344 "},"ț":{"ha":525,"x_min":0,"x_max":0,"o":"m 285 578 l 285 201 b 469 108 285 96 346 103 l 469 0 b 164 201 261 -28 164 28 l 164 578 l 26 578 l 26 694 l 164 694 l 164 853 l 285 889 l 285 694 l 469 694 l 469 578 m 268 -94 l 386 -94 l 344 -344 l 254 -344 "},"u":{"ha":783,"x_min":0,"x_max":0,"o":"m 692 694 l 692 0 l 571 0 l 571 100 b 346 -18 519 18 443 -18 b 76 268 183 -18 76 90 l 76 694 l 197 694 l 197 275 b 369 97 197 161 263 97 b 571 326 481 97 571 163 l 571 694 "},"ú":{"ha":783,"x_min":0,"x_max":0,"o":"m 415 789 l 299 789 l 410 972 l 556 972 m 692 694 l 692 0 l 571 0 l 571 100 b 346 -18 519 18 443 -18 b 76 268 183 -18 76 90 l 76 694 l 197 694 l 197 275 b 369 97 197 161 263 97 b 571 326 481 97 571 163 l 571 694 "},"û":{"ha":783,"x_min":0,"x_max":0,"o":"m 296 785 l 167 785 l 314 972 l 447 972 l 594 785 l 465 785 l 381 897 m 692 694 l 692 0 l 571 0 l 571 100 b 346 -18 519 18 443 -18 b 76 268 183 -18 76 90 l 76 694 l 197 694 l 197 275 b 369 97 197 161 263 97 b 571 326 481 97 571 163 l 571 694 "},"ü":{"ha":783,"x_min":0,"x_max":0,"o":"m 250 786 b 176 860 210 786 176 819 b 250 932 176 900 210 932 b 322 860 290 932 322 900 b 250 786 322 819 290 786 m 514 786 b 440 860 474 786 440 819 b 514 932 440 900 474 932 b 586 860 554 932 586 900 b 514 786 586 819 554 786 m 692 694 l 692 0 l 571 0 l 571 100 b 346 -18 519 18 443 -18 b 76 268 183 -18 76 90 l 76 694 l 197 694 l 197 275 b 369 97 197 161 263 97 b 571 326 481 97 571 163 l 571 694 "},"ù":{"ha":783,"x_min":0,"x_max":0,"o":"m 358 789 l 218 972 l 364 972 l 475 789 m 692 694 l 692 0 l 571 0 l 571 100 b 346 -18 519 18 443 -18 b 76 268 183 -18 76 90 l 76 694 l 197 694 l 197 275 b 369 97 197 161 263 97 b 571 326 481 97 571 163 l 571 694 "},"ű":{"ha":783,"x_min":0,"x_max":0,"o":"m 303 785 l 181 785 l 282 969 l 413 969 m 393 785 l 508 969 l 639 969 l 515 785 m 692 694 l 692 0 l 571 0 l 571 100 b 346 -18 519 18 443 -18 b 76 268 183 -18 76 90 l 76 694 l 197 694 l 197 275 b 369 97 197 161 263 97 b 571 326 481 97 571 163 l 571 694 "},"ū":{"ha":783,"x_min":0,"x_max":0,"o":"m 569 799 l 194 799 l 194 900 l 569 900 m 692 694 l 692 0 l 571 0 l 571 100 b 346 -18 519 18 443 -18 b 76 268 183 -18 76 90 l 76 694 l 197 694 l 197 275 b 369 97 197 161 263 97 b 571 326 481 97 571 163 l 571 694 "},"ų":{"ha":783,"x_min":0,"x_max":0,"o":"m 692 0 b 597 -158 633 -56 597 -117 b 640 -200 597 -187 613 -200 b 692 -189 658 -200 674 -197 l 692 -278 b 600 -296 665 -289 636 -296 b 479 -185 525 -296 479 -253 b 571 1 479 -133 511 -72 l 571 100 b 346 -18 519 18 443 -18 b 76 268 183 -18 76 90 l 76 694 l 197 694 l 197 275 b 369 97 197 161 263 97 b 571 326 481 97 571 163 l 571 694 l 692 694 l 692 0 "},"ů":{"ha":783,"x_min":0,"x_max":0,"o":"m 382 758 b 225 907 289 758 225 822 b 382 1054 225 990 289 1054 b 539 907 476 1054 539 990 b 382 758 539 822 476 758 m 382 969 b 317 907 340 969 317 942 b 382 843 317 871 340 843 b 449 907 426 843 449 871 b 382 969 449 942 426 969 m 692 694 l 692 0 l 571 0 l 571 100 b 346 -18 519 18 443 -18 b 76 268 183 -18 76 90 l 76 694 l 197 694 l 197 275 b 369 97 197 161 263 97 b 571 326 481 97 571 163 l 571 694 "},"v":{"ha":719,"x_min":0,"x_max":0,"o":"m 708 694 l 431 0 l 289 0 l 11 694 l 142 694 l 360 129 l 578 694 "},"w":{"ha":1069,"x_min":0,"x_max":0,"o":"m 1036 694 l 821 0 l 697 0 l 535 514 l 372 0 l 249 0 l 33 694 l 160 694 l 313 167 l 476 694 l 593 694 l 757 165 l 910 694 "},"ẃ":{"ha":1069,"x_min":0,"x_max":0,"o":"m 568 789 l 451 789 l 563 972 l 708 972 m 1036 694 l 821 0 l 697 0 l 535 514 l 372 0 l 249 0 l 33 694 l 160 694 l 313 167 l 476 694 l 593 694 l 757 165 l 910 694 "},"ŵ":{"ha":1069,"x_min":0,"x_max":0,"o":"m 449 785 l 319 785 l 467 972 l 600 972 l 747 785 l 618 785 l 533 897 m 1036 694 l 821 0 l 697 0 l 535 514 l 372 0 l 249 0 l 33 694 l 160 694 l 313 167 l 476 694 l 593 694 l 757 165 l 910 694 "},"ẅ":{"ha":1069,"x_min":0,"x_max":0,"o":"m 403 786 b 329 860 363 786 329 819 b 403 932 329 900 363 932 b 475 860 443 932 475 900 b 403 786 475 819 443 786 m 667 786 b 593 860 626 786 593 819 b 667 932 593 900 626 932 b 739 860 707 932 739 900 b 667 786 739 819 707 786 m 1036 694 l 821 0 l 697 0 l 535 514 l 372 0 l 249 0 l 33 694 l 160 694 l 313 167 l 476 694 l 593 694 l 757 165 l 910 694 "},"ẁ":{"ha":1069,"x_min":0,"x_max":0,"o":"m 511 789 l 371 972 l 517 972 l 628 789 m 1036 694 l 821 0 l 697 0 l 535 514 l 372 0 l 249 0 l 33 694 l 160 694 l 313 167 l 476 694 l 593 694 l 757 165 l 910 694 "},"x":{"ha":715,"x_min":0,"x_max":0,"o":"m 553 0 l 358 263 l 163 0 l 21 0 l 288 357 l 36 694 l 179 694 l 358 453 l 538 694 l 679 694 l 429 358 l 694 0 "},"y":{"ha":715,"x_min":0,"x_max":0,"o":"m 706 694 l 422 -43 b 114 -278 364 -199 256 -287 l 114 -165 b 301 -24 207 -172 265 -115 l 314 3 l 11 694 l 140 694 l 376 150 l 576 694 "},"ý":{"ha":715,"x_min":0,"x_max":0,"o":"m 389 789 l 272 789 l 383 972 l 529 972 m 706 694 l 422 -43 b 114 -278 364 -199 256 -287 l 114 -165 b 301 -24 207 -172 265 -115 l 314 3 l 11 694 l 140 694 l 376 150 l 576 694 "},"ŷ":{"ha":715,"x_min":0,"x_max":0,"o":"m 269 785 l 140 785 l 288 972 l 421 972 l 568 785 l 439 785 l 354 897 m 706 694 l 422 -43 b 114 -278 364 -199 256 -287 l 114 -165 b 301 -24 207 -172 265 -115 l 314 3 l 11 694 l 140 694 l 376 150 l 576 694 "},"ÿ":{"ha":715,"x_min":0,"x_max":0,"o":"m 224 786 b 150 860 183 786 150 819 b 224 932 150 900 183 932 b 296 860 264 932 296 900 b 224 786 296 819 264 786 m 488 786 b 414 860 447 786 414 819 b 488 932 414 900 447 932 b 560 860 528 932 560 900 b 488 786 560 819 528 786 m 706 694 l 422 -43 b 114 -278 364 -199 256 -287 l 114 -165 b 301 -24 207 -172 265 -115 l 314 3 l 11 694 l 140 694 l 376 150 l 576 694 "},"ỳ":{"ha":715,"x_min":0,"x_max":0,"o":"m 332 789 l 192 972 l 338 972 l 449 789 m 706 694 l 422 -43 b 114 -278 364 -199 256 -287 l 114 -165 b 301 -24 207 -172 265 -115 l 314 3 l 11 694 l 140 694 l 376 150 l 576 694 "},"z":{"ha":654,"x_min":0,"x_max":0,"o":"m 601 115 l 601 0 l 67 0 l 67 81 l 421 579 l 81 579 l 81 694 l 588 694 l 588 614 l 232 115 "},"ź":{"ha":654,"x_min":0,"x_max":0,"o":"m 369 789 l 253 789 l 364 972 l 510 972 m 601 115 l 601 0 l 67 0 l 67 81 l 421 579 l 81 579 l 81 694 l 588 694 l 588 614 l 232 115 "},"ž":{"ha":654,"x_min":0,"x_max":0,"o":"m 121 972 l 250 972 l 335 860 l 419 972 l 549 972 l 401 785 l 268 785 m 601 115 l 601 0 l 67 0 l 67 81 l 421 579 l 81 579 l 81 694 l 588 694 l 588 614 l 232 115 "},"ż":{"ha":654,"x_min":0,"x_max":0,"o":"m 336 783 b 249 869 288 783 249 822 b 336 957 249 918 288 957 b 422 869 383 957 422 918 b 336 783 422 822 383 783 m 601 115 l 601 0 l 67 0 l 67 81 l 421 579 l 81 579 l 81 694 l 588 694 l 588 614 l 232 115 "},"ﬁ":{"ha":736,"x_min":0,"x_max":0,"o":"m 643 0 l 522 0 l 522 578 l 265 578 l 265 0 l 144 0 l 144 578 l 33 578 l 33 694 l 144 694 l 144 715 b 449 990 144 900 250 990 b 592 972 493 990 539 983 l 592 863 b 449 874 539 869 493 874 b 265 715 328 874 265 836 l 265 694 l 643 694 "},"ﬂ":{"ha":736,"x_min":0,"x_max":0,"o":"m 449 990 b 643 969 515 990 576 982 l 643 0 l 522 0 l 522 879 b 449 882 497 881 472 882 b 265 715 328 882 265 836 l 265 694 l 410 694 l 410 578 l 265 578 l 265 0 l 144 0 l 144 578 l 33 578 l 33 694 l 144 694 l 144 715 b 449 990 144 900 250 990 "},"А":{"ha":893,"x_min":0,"x_max":0,"o":"m 665 218 l 228 218 l 149 0 l 11 0 l 374 972 l 519 972 l 882 0 l 744 0 m 621 339 l 446 818 l 272 339 "},"Б":{"ha":813,"x_min":0,"x_max":0,"o":"m 469 590 b 771 296 639 590 771 461 b 469 0 771 128 639 0 l 104 0 l 104 972 l 688 972 l 688 850 l 233 850 l 233 590 l 469 590 m 469 121 b 643 296 564 121 643 194 b 469 469 643 396 564 469 l 233 469 l 233 121 l 469 121 "},"В":{"ha":854,"x_min":0,"x_max":0,"o":"m 660 504 b 806 275 747 463 806 381 b 524 0 806 119 681 0 l 104 0 l 104 972 l 493 972 b 765 707 644 972 765 857 b 660 504 765 619 724 549 m 233 851 l 233 554 l 493 554 b 638 703 574 554 638 619 b 493 851 638 785 574 851 m 524 121 b 678 279 610 121 678 190 b 524 436 678 367 610 436 l 233 436 l 233 121 l 524 121 "},"Г":{"ha":674,"x_min":0,"x_max":0,"o":"m 650 850 l 233 850 l 233 0 l 104 0 l 104 972 l 650 972 "},"Ѓ":{"ha":674,"x_min":0,"x_max":0,"o":"m 414 1065 l 297 1065 l 408 1249 l 554 1249 m 650 850 l 233 850 l 233 0 l 104 0 l 104 972 l 650 972 "},"Ґ":{"ha":674,"x_min":0,"x_max":0,"o":"m 650 1139 l 650 850 l 233 850 l 233 0 l 104 0 l 104 972 l 521 972 l 521 1139 "},"Д":{"ha":965,"x_min":0,"x_max":0,"o":"m 921 122 l 921 -186 l 792 -186 l 792 0 l 150 0 l 150 -186 l 21 -186 l 21 122 l 106 122 b 196 464 157 186 196 281 l 196 972 l 817 972 l 817 122 m 688 122 l 688 851 l 325 851 l 325 461 b 251 122 325 283 290 185 "},"Е":{"ha":736,"x_min":0,"x_max":0,"o":"m 685 122 l 685 0 l 104 0 l 104 972 l 678 972 l 678 850 l 233 850 l 233 551 l 643 551 l 643 431 l 233 431 l 233 122 "},"Ё":{"ha":736,"x_min":0,"x_max":0,"o":"m 260 1064 b 186 1138 219 1064 186 1097 b 260 1210 186 1178 219 1210 b 332 1138 300 1210 332 1178 b 260 1064 332 1097 300 1064 m 524 1064 b 450 1138 483 1064 450 1097 b 524 1210 450 1178 483 1210 b 596 1138 564 1210 596 1178 b 524 1064 596 1097 564 1064 m 685 122 l 685 0 l 104 0 l 104 972 l 678 972 l 678 850 l 233 850 l 233 551 l 643 551 l 643 431 l 233 431 l 233 122 "},"Ж":{"ha":1206,"x_min":0,"x_max":0,"o":"m 1035 0 l 667 467 l 667 0 l 539 0 l 539 467 l 171 0 l 25 0 l 414 497 l 39 972 l 185 972 l 539 526 l 539 972 l 667 972 l 667 526 l 1021 972 l 1168 972 l 792 497 l 1182 0 "},"З":{"ha":783,"x_min":0,"x_max":0,"o":"m 576 503 b 735 265 676 461 735 376 b 393 -18 735 101 601 -18 b 47 206 193 -18 89 88 l 157 268 b 393 104 178 188 239 104 b 606 269 532 104 606 172 b 408 436 606 367 536 436 l 294 436 l 294 554 l 376 554 b 571 713 497 554 571 619 b 385 869 571 803 504 869 b 169 726 258 869 197 800 l 61 789 b 385 990 110 900 208 990 b 699 715 574 990 699 874 b 576 503 699 622 653 549 "},"И":{"ha":942,"x_min":0,"x_max":0,"o":"m 708 725 l 208 0 l 104 0 l 104 972 l 233 972 l 233 246 l 733 972 l 838 972 l 838 0 l 708 0 "},"Й":{"ha":942,"x_min":0,"x_max":0,"o":"m 283 1182 l 658 1182 l 658 1076 l 283 1076 m 708 725 l 208 0 l 104 0 l 104 972 l 233 972 l 233 246 l 733 972 l 838 972 l 838 0 l 708 0 "},"К":{"ha":822,"x_min":0,"x_max":0,"o":"m 653 0 l 233 467 l 233 0 l 104 0 l 104 972 l 233 972 l 233 533 l 639 972 l 797 972 l 368 500 l 811 0 "},"Ќ":{"ha":822,"x_min":0,"x_max":0,"o":"m 442 1065 l 325 1065 l 436 1249 l 582 1249 m 653 0 l 233 467 l 233 0 l 104 0 l 104 972 l 233 972 l 233 533 l 639 972 l 797 972 l 368 500 l 811 0 "},"Л":{"ha":957,"x_min":0,"x_max":0,"o":"m 19 117 b 211 421 140 100 211 164 l 211 972 l 853 972 l 853 0 l 724 0 l 724 850 l 340 850 l 340 421 b 19 0 340 63 200 -17 "},"М":{"ha":1118,"x_min":0,"x_max":0,"o":"m 1014 0 l 886 0 l 886 760 l 568 231 l 551 231 l 233 758 l 233 0 l 104 0 l 104 972 l 250 972 l 560 458 l 868 972 l 1014 972 "},"Н":{"ha":938,"x_min":0,"x_max":0,"o":"m 833 972 l 833 0 l 706 0 l 706 438 l 233 438 l 233 0 l 104 0 l 104 972 l 233 972 l 233 560 l 706 560 l 706 972 "},"О":{"ha":1111,"x_min":0,"x_max":0,"o":"m 556 -18 b 53 486 274 -18 53 207 b 556 990 53 767 274 990 b 1060 486 838 990 1060 767 b 556 -18 1060 207 838 -18 m 556 108 b 931 486 768 108 931 274 b 556 865 931 700 768 865 b 181 486 343 865 181 700 b 556 108 181 274 343 108 "},"П":{"ha":914,"x_min":0,"x_max":0,"o":"m 810 0 l 681 0 l 681 850 l 233 850 l 233 0 l 104 0 l 104 972 l 810 972 "},"Р":{"ha":819,"x_min":0,"x_max":0,"o":"m 457 972 b 771 660 636 972 771 838 b 457 347 771 483 636 347 l 233 347 l 233 0 l 104 0 l 104 972 l 457 972 m 457 468 b 643 660 564 468 643 550 b 457 851 643 771 564 851 l 233 851 l 233 468 l 457 468 "},"С":{"ha":1026,"x_min":0,"x_max":0,"o":"m 561 -18 b 53 486 264 -18 53 207 b 561 990 53 767 264 990 b 981 754 740 990 899 897 l 868 689 b 561 865 813 796 694 865 b 181 486 333 865 181 700 b 561 108 181 274 333 108 b 868 283 694 108 813 178 l 981 219 b 561 -18 900 76 742 -18 "},"Т":{"ha":750,"x_min":0,"x_max":0,"o":"m 726 850 l 439 850 l 439 0 l 311 0 l 311 850 l 25 850 l 25 972 l 726 972 "},"У":{"ha":806,"x_min":0,"x_max":0,"o":"m 792 972 l 479 231 b 144 0 408 63 301 -10 l 144 119 b 358 253 253 108 315 151 l 368 275 l 39 972 l 169 972 l 428 417 l 661 972 "},"Ў":{"ha":806,"x_min":0,"x_max":0,"o":"m 597 1075 l 222 1075 l 222 1181 l 597 1181 m 792 972 l 479 231 b 144 0 408 63 301 -10 l 144 119 b 358 253 253 108 315 151 l 368 275 l 39 972 l 169 972 l 428 417 l 661 972 "},"Ф":{"ha":1124,"x_min":0,"x_max":0,"o":"m 1086 486 b 625 103 1086 254 896 121 l 625 -7 l 499 -7 l 499 103 b 39 486 228 121 39 254 b 499 869 39 718 228 851 l 499 979 l 625 979 l 625 869 b 1086 486 896 851 1086 718 m 625 221 b 957 486 828 235 957 319 b 625 751 957 653 828 738 l 625 221 m 167 486 b 499 222 167 319 296 236 l 499 751 b 167 486 296 738 167 653 "},"Х":{"ha":819,"x_min":0,"x_max":0,"o":"m 649 0 l 410 383 l 171 0 l 25 0 l 338 500 l 43 972 l 189 972 l 410 618 l 631 972 l 776 972 l 483 501 l 796 0 "},"Ч":{"ha":872,"x_min":0,"x_max":0,"o":"m 768 972 l 768 0 l 639 0 l 639 392 b 400 338 560 354 486 338 b 83 625 210 338 83 454 l 83 972 l 213 972 l 213 633 b 401 460 213 529 281 460 b 639 514 489 460 561 476 l 639 972 "},"Ц":{"ha":958,"x_min":0,"x_max":0,"o":"m 914 122 l 914 -186 l 785 -186 l 785 0 l 104 0 l 104 972 l 233 972 l 233 122 l 681 122 l 681 972 l 810 972 l 810 122 "},"Ш":{"ha":1317,"x_min":0,"x_max":0,"o":"m 1213 972 l 1213 0 l 104 0 l 104 972 l 233 972 l 233 122 l 594 122 l 594 972 l 722 972 l 722 122 l 1083 122 l 1083 972 "},"Щ":{"ha":1361,"x_min":0,"x_max":0,"o":"m 1317 122 l 1317 -186 l 1188 -186 l 1188 0 l 104 0 l 104 972 l 233 972 l 233 122 l 594 122 l 594 972 l 722 972 l 722 122 l 1083 122 l 1083 972 l 1213 972 l 1213 122 "},"Џ":{"ha":914,"x_min":0,"x_max":0,"o":"m 810 972 l 810 0 l 521 0 l 521 -186 l 393 -186 l 393 0 l 104 0 l 104 972 l 233 972 l 233 122 l 681 122 l 681 972 "},"Ь":{"ha":819,"x_min":0,"x_max":0,"o":"m 457 625 b 771 313 636 625 771 489 b 457 0 771 135 636 0 l 104 0 l 104 972 l 233 972 l 233 625 l 457 625 m 457 121 b 643 313 564 121 643 201 b 457 504 643 422 564 504 l 233 504 l 233 121 l 457 121 "},"Ъ":{"ha":969,"x_min":0,"x_max":0,"o":"m 254 850 l 0 850 l 0 972 l 382 972 l 382 625 l 606 625 b 921 313 785 625 921 489 b 606 0 921 135 785 0 l 254 0 m 606 121 b 792 313 714 121 792 201 b 606 504 792 424 714 504 l 382 504 l 382 121 "},"Ы":{"ha":1103,"x_min":0,"x_max":0,"o":"m 104 972 l 233 972 l 233 625 l 457 625 b 771 313 636 625 771 489 b 457 0 771 135 636 0 l 104 0 m 869 972 l 999 972 l 999 0 l 869 0 m 457 121 b 643 313 564 121 643 201 b 457 504 643 424 564 504 l 233 504 l 233 121 "},"Љ":{"ha":1367,"x_min":0,"x_max":0,"o":"m 1014 574 b 1318 286 1183 574 1318 453 b 1014 0 1318 119 1183 0 l 689 0 l 689 850 l 340 850 l 340 421 b 19 -1 340 63 200 -18 l 19 115 b 211 421 140 100 211 164 l 211 972 l 818 972 l 818 574 l 1014 574 m 1014 121 b 1189 286 1111 121 1189 186 b 1014 453 1189 386 1111 453 l 818 453 l 818 121 l 1014 121 "},"Њ":{"ha":1351,"x_min":0,"x_max":0,"o":"m 999 574 b 1303 286 1167 574 1303 453 b 999 0 1303 119 1167 0 l 674 0 l 674 453 l 233 453 l 233 0 l 104 0 l 104 972 l 233 972 l 233 574 l 674 574 l 674 972 l 803 972 l 803 574 l 999 574 m 999 121 b 1174 286 1096 121 1174 186 b 999 453 1174 386 1096 453 l 803 453 l 803 121 l 999 121 "},"Ѕ":{"ha":803,"x_min":0,"x_max":0,"o":"m 418 -18 b 50 221 233 -18 101 75 l 161 285 b 421 108 196 178 279 108 b 626 258 558 108 626 171 b 397 436 626 358 540 392 b 92 715 242 486 92 535 b 397 990 92 890 235 990 b 726 778 557 990 672 900 l 618 715 b 397 865 583 799 515 865 b 221 721 293 865 221 810 b 425 554 221 631 289 597 b 754 261 594 499 754 449 b 418 -18 754 90 617 -18 "},"Є":{"ha":1021,"x_min":0,"x_max":0,"o":"m 556 108 b 863 283 690 108 808 178 l 975 219 b 556 -18 896 76 736 -18 b 53 486 258 -18 53 207 b 556 990 53 767 258 990 b 975 754 735 990 894 897 l 863 689 b 556 865 807 796 690 865 b 185 547 350 865 210 731 l 685 547 l 685 426 l 185 426 b 556 108 210 243 350 108 "},"Э":{"ha":1021,"x_min":0,"x_max":0,"o":"m 465 990 b 968 486 763 990 968 767 b 465 -18 968 207 763 -18 b 46 219 285 -18 125 76 l 158 283 b 465 108 213 178 331 108 b 836 426 671 108 811 243 l 336 426 l 336 547 l 836 547 b 465 865 811 731 671 865 b 158 689 331 865 214 796 l 46 754 b 465 990 126 897 286 990 "},"І":{"ha":338,"x_min":0,"x_max":0,"o":"m 233 972 l 233 0 l 104 0 l 104 972 "},"Ї":{"ha":338,"x_min":0,"x_max":0,"o":"m 36 1064 b -37 1138 -4 1064 -37 1097 b 36 1210 -37 1178 -4 1210 b 108 1138 76 1210 108 1178 b 36 1064 108 1097 76 1064 m 300 1064 b 226 1138 260 1064 226 1097 b 300 1210 226 1178 260 1210 b 372 1138 340 1210 372 1178 b 300 1064 372 1097 340 1064 m 233 972 l 233 0 l 104 0 l 104 972 "},"Ј":{"ha":775,"x_min":0,"x_max":0,"o":"m 357 -18 b 53 156 219 -18 104 40 l 163 219 b 357 108 193 142 263 108 b 556 285 476 108 556 164 l 556 972 l 683 972 l 683 285 b 357 -18 683 82 535 -18 "},"Ћ":{"ha":979,"x_min":0,"x_max":0,"o":"m 626 653 b 889 386 778 653 889 565 l 889 0 l 760 0 l 760 381 b 614 536 760 492 701 536 b 415 497 540 536 479 522 l 415 0 l 286 0 l 286 850 l 25 850 l 25 972 l 715 972 l 715 850 l 415 850 l 415 611 b 626 653 482 639 547 653 "},"Ю":{"ha":1451,"x_min":0,"x_max":0,"o":"m 896 990 b 1400 486 1178 990 1400 767 b 896 -18 1400 207 1178 -18 b 400 439 631 -18 424 182 l 233 439 l 233 0 l 104 0 l 104 972 l 233 972 l 233 561 l 404 561 b 896 990 439 806 639 990 m 896 108 b 1271 486 1108 108 1271 274 b 896 865 1271 700 1108 865 b 521 486 683 865 521 701 b 896 108 521 274 683 108 "},"Я":{"ha":863,"x_min":0,"x_max":0,"o":"m 758 0 l 631 0 l 631 372 l 438 372 l 186 0 l 40 0 l 299 381 b 68 671 167 413 68 532 b 369 972 68 838 203 972 l 758 972 m 631 489 l 631 851 l 369 851 b 196 671 275 851 196 771 b 369 489 196 571 275 489 "},"Ђ":{"ha":972,"x_min":0,"x_max":0,"o":"m 626 653 b 889 386 778 653 889 565 l 889 242 b 621 -12 889 63 796 -25 l 621 107 b 760 242 721 97 760 136 l 760 381 b 614 536 760 492 701 536 b 415 497 540 536 479 522 l 415 0 l 286 0 l 286 850 l 25 850 l 25 972 l 715 972 l 715 850 l 415 850 l 415 611 b 626 653 482 639 547 653 "},"а":{"ha":879,"x_min":0,"x_max":0,"o":"m 788 694 l 788 0 l 667 0 l 667 119 b 404 -18 611 35 522 -18 b 53 347 211 -18 53 142 b 404 713 53 553 211 713 b 667 575 522 713 611 660 l 667 694 m 419 99 b 667 347 560 99 667 206 b 419 596 667 489 560 596 b 174 347 281 596 174 489 b 419 99 174 206 281 99 "},"б":{"ha":788,"x_min":0,"x_max":0,"o":"m 407 -18 b 53 344 203 -18 53 131 b 318 792 53 568 94 683 b 590 994 464 863 568 882 l 688 939 b 396 706 664 806 535 764 b 194 518 268 651 219 603 b 439 626 258 599 361 626 b 751 308 610 626 751 499 b 407 -18 751 121 608 -18 m 407 99 b 631 308 538 99 631 188 b 411 519 631 431 543 519 b 179 315 303 519 179 446 b 407 99 179 188 279 99 "},"в":{"ha":700,"x_min":0,"x_max":0,"o":"m 554 357 b 661 196 624 328 661 271 b 439 0 661 86 588 0 l 92 0 l 92 694 l 411 694 b 629 506 554 694 629 614 b 554 357 629 440 604 389 m 210 586 l 210 404 l 406 404 b 511 497 475 404 511 436 b 406 586 511 553 475 586 m 432 110 b 542 206 504 110 542 146 b 432 297 542 263 503 297 l 210 297 l 210 110 l 432 110 "},"г":{"ha":561,"x_min":0,"x_max":0,"o":"m 547 578 l 213 578 l 213 0 l 92 0 l 92 694 l 547 694 "},"ѓ":{"ha":561,"x_min":0,"x_max":0,"o":"m 324 789 l 207 789 l 318 972 l 464 972 m 547 578 l 213 578 l 213 0 l 92 0 l 92 694 l 547 694 "},"ґ":{"ha":561,"x_min":0,"x_max":0,"o":"m 547 838 l 547 578 l 213 578 l 213 0 l 92 0 l 92 694 l 428 694 l 428 838 "},"д":{"ha":824,"x_min":0,"x_max":0,"o":"m 785 115 l 785 -186 l 665 -186 l 665 0 l 144 0 l 144 -186 l 25 -186 l 25 115 l 110 115 b 176 372 151 172 176 240 l 176 694 l 689 694 l 689 115 m 569 115 l 569 582 l 296 582 l 296 372 b 247 115 296 261 279 182 "},"е":{"ha":810,"x_min":0,"x_max":0,"o":"m 176 292 b 428 96 200 167 299 96 b 628 197 524 96 593 140 l 731 139 b 425 -18 669 44 564 -18 b 53 347 201 -18 53 139 b 417 713 53 553 200 713 b 763 346 626 713 763 540 b 758 292 763 328 761 310 l 176 292 m 417 599 b 176 397 286 599 196 518 l 640 397 b 417 599 619 535 521 599 "},"ё":{"ha":810,"x_min":0,"x_max":0,"o":"m 276 788 b 203 861 236 788 203 821 b 276 933 203 901 236 933 b 349 861 317 933 349 901 b 276 788 349 821 317 788 m 540 788 b 467 861 500 788 467 821 b 540 933 467 901 500 933 b 613 861 581 933 613 901 b 540 788 613 821 581 788 m 176 292 b 428 96 200 167 299 96 b 628 197 524 96 593 140 l 731 139 b 425 -18 669 44 564 -18 b 53 347 201 -18 53 139 b 417 713 53 553 200 713 b 763 346 626 713 763 540 b 758 292 763 328 761 310 l 176 292 m 417 599 b 176 397 286 599 196 518 l 640 397 b 417 599 619 535 521 599 "},"ж":{"ha":969,"x_min":0,"x_max":0,"o":"m 804 0 l 544 329 l 544 0 l 425 0 l 425 329 l 165 0 l 25 0 l 315 358 l 39 694 l 179 694 l 425 388 l 425 694 l 544 694 l 544 388 l 790 694 l 932 694 l 654 358 l 946 0 "},"з":{"ha":621,"x_min":0,"x_max":0,"o":"m 467 356 b 582 190 540 325 582 265 b 315 -18 582 81 494 -18 b 36 149 161 -18 76 54 l 138 208 b 317 94 161 142 215 94 b 463 201 413 94 463 140 b 347 296 463 257 419 296 l 246 296 l 246 406 l 321 406 b 432 501 392 406 432 442 b 304 601 432 558 385 601 b 146 503 231 601 174 569 l 47 560 b 304 713 92 653 178 713 b 550 511 461 713 550 618 b 467 356 550 444 522 389 "},"и":{"ha":785,"x_min":0,"x_max":0,"o":"m 693 694 l 693 0 l 574 0 l 574 488 l 189 0 l 92 0 l 92 694 l 211 694 l 211 207 l 596 694 "},"й":{"ha":785,"x_min":0,"x_max":0,"o":"m 206 904 l 581 904 l 581 799 l 206 799 m 693 694 l 693 0 l 574 0 l 574 488 l 189 0 l 92 0 l 92 694 l 211 694 l 211 207 l 596 694 "},"к":{"ha":700,"x_min":0,"x_max":0,"o":"m 529 0 l 213 329 l 213 0 l 92 0 l 92 694 l 213 694 l 213 388 l 513 694 l 668 694 l 336 358 l 679 0 "},"ќ":{"ha":700,"x_min":0,"x_max":0,"o":"m 386 789 l 269 789 l 381 972 l 526 972 m 529 0 l 213 329 l 213 0 l 92 0 l 92 694 l 213 694 l 213 388 l 513 694 l 668 694 l 336 358 l 679 0 "},"л":{"ha":763,"x_min":0,"x_max":0,"o":"m 671 0 l 550 0 l 550 578 l 276 578 l 276 294 b 14 0 276 56 169 -14 l 14 114 b 156 297 104 101 156 143 l 156 694 l 671 694 "},"м":{"ha":879,"x_min":0,"x_max":0,"o":"m 786 0 l 668 0 l 668 504 l 447 149 l 432 149 l 211 504 l 211 0 l 92 0 l 92 694 l 221 694 l 439 343 l 657 694 l 786 694 "},"н":{"ha":785,"x_min":0,"x_max":0,"o":"m 693 694 l 693 0 l 572 0 l 572 290 l 213 290 l 213 0 l 92 0 l 92 694 l 213 694 l 213 406 l 572 406 l 572 694 "},"о":{"ha":836,"x_min":0,"x_max":0,"o":"m 418 -18 b 53 347 215 -18 53 142 b 418 713 53 553 215 713 b 785 347 621 713 785 553 b 418 -18 785 142 621 -18 m 418 100 b 664 347 557 100 664 207 b 418 594 664 488 557 594 b 174 347 281 594 174 488 b 418 100 174 207 281 100 "},"п":{"ha":785,"x_min":0,"x_max":0,"o":"m 693 0 l 572 0 l 572 579 l 213 579 l 213 0 l 92 0 l 92 694 l 693 694 "},"р":{"ha":879,"x_min":0,"x_max":0,"o":"m 475 713 b 826 347 668 713 826 553 b 475 -18 826 142 668 -18 b 213 119 357 -18 268 35 l 213 -278 l 92 -278 l 92 694 l 213 694 l 213 575 b 475 713 268 660 357 713 m 460 99 b 706 347 599 99 706 206 b 460 596 706 489 599 596 b 213 347 319 596 213 489 b 460 99 213 206 319 99 "},"с":{"ha":760,"x_min":0,"x_max":0,"o":"m 418 -18 b 53 347 208 -18 53 142 b 418 713 53 553 208 713 b 725 531 556 713 672 640 l 624 472 b 418 594 589 546 511 594 b 174 347 279 594 174 488 b 418 101 174 208 279 101 b 628 222 513 101 589 150 l 731 163 b 418 -18 672 54 554 -18 "},"т":{"ha":622,"x_min":0,"x_max":0,"o":"m 608 578 l 372 578 l 372 0 l 251 0 l 251 578 l 14 578 l 14 694 l 608 694 "},"у":{"ha":715,"x_min":0,"x_max":0,"o":"m 706 694 l 422 -43 b 114 -278 364 -199 253 -287 l 114 -165 b 301 -26 207 -172 265 -117 l 313 -1 l 11 694 l 139 694 l 376 150 l 576 694 "},"ў":{"ha":715,"x_min":0,"x_max":0,"o":"m 543 799 l 168 799 l 168 904 l 543 904 m 706 694 l 422 -43 b 114 -278 364 -199 253 -287 l 114 -165 b 301 -26 207 -172 265 -117 l 313 -1 l 11 694 l 139 694 l 376 150 l 576 694 "},"ф":{"ha":938,"x_min":0,"x_max":0,"o":"m 886 347 b 529 -14 886 158 749 10 l 529 -278 l 410 -278 l 410 -14 b 53 347 190 10 53 158 b 410 708 53 536 190 685 l 410 972 l 529 972 l 529 708 b 886 347 749 685 886 536 m 172 347 b 410 103 172 222 258 124 l 410 592 b 172 347 258 572 172 474 m 529 103 b 765 347 679 124 765 222 b 529 592 765 474 679 571 l 529 103 "},"х":{"ha":715,"x_min":0,"x_max":0,"o":"m 553 0 l 358 263 l 163 0 l 21 0 l 288 357 l 36 694 l 179 694 l 358 453 l 538 694 l 679 694 l 429 358 l 694 0 "},"ч":{"ha":742,"x_min":0,"x_max":0,"o":"m 650 694 l 650 0 l 529 0 l 529 250 b 342 214 475 226 410 214 b 63 464 168 214 63 296 l 63 694 l 183 694 l 183 471 b 350 326 183 364 246 326 b 529 363 414 326 476 339 l 529 694 "},"ц":{"ha":826,"x_min":0,"x_max":0,"o":"m 789 115 l 789 -186 l 669 -186 l 669 0 l 92 0 l 92 694 l 213 694 l 213 115 l 554 115 l 554 694 l 675 694 l 675 115 "},"ш":{"ha":1136,"x_min":0,"x_max":0,"o":"m 1043 694 l 1043 0 l 92 0 l 92 694 l 213 694 l 213 115 l 507 115 l 507 694 l 628 694 l 628 115 l 922 115 l 922 694 "},"щ":{"ha":1171,"x_min":0,"x_max":0,"o":"m 1132 115 l 1132 -186 l 1013 -186 l 1013 0 l 92 0 l 92 694 l 213 694 l 213 115 l 504 115 l 504 694 l 625 694 l 625 115 l 915 115 l 915 694 l 1036 694 l 1036 115 "},"џ":{"ha":785,"x_min":0,"x_max":0,"o":"m 693 694 l 693 0 l 453 0 l 453 -186 l 333 -186 l 333 0 l 92 0 l 92 694 l 213 694 l 213 115 l 572 115 l 572 694 "},"ь":{"ha":665,"x_min":0,"x_max":0,"o":"m 385 444 b 626 222 522 444 626 354 b 385 0 626 90 522 0 l 92 0 l 92 694 l 213 694 l 213 444 l 385 444 m 385 113 b 507 222 451 113 507 154 b 385 333 507 290 451 333 l 213 333 l 213 113 l 385 113 "},"ъ":{"ha":765,"x_min":0,"x_max":0,"o":"m 486 444 b 728 222 622 444 728 354 b 486 0 728 90 622 0 l 193 0 l 193 578 l 0 578 l 0 694 l 314 694 l 314 444 l 486 444 m 486 113 b 608 222 553 113 608 154 b 486 333 608 290 553 333 l 314 333 l 314 113 l 486 113 "},"ы":{"ha":931,"x_min":0,"x_max":0,"o":"m 385 444 b 626 222 522 444 626 354 b 385 0 626 90 522 0 l 92 0 l 92 694 l 213 694 l 213 444 l 385 444 m 838 694 l 838 0 l 717 0 l 717 694 m 385 113 b 507 222 451 113 507 154 b 385 333 507 290 451 333 l 213 333 l 213 113 l 385 113 "},"љ":{"ha":1085,"x_min":0,"x_max":0,"o":"m 821 421 b 1046 210 950 421 1046 343 b 821 0 1046 78 949 0 l 536 0 l 536 578 l 276 578 l 276 294 b 14 -3 276 56 169 -14 l 14 111 b 156 297 104 101 156 143 l 156 694 l 657 694 l 657 421 l 821 421 m 822 113 b 931 210 879 113 931 142 b 822 308 931 279 879 308 l 657 308 l 657 113 l 822 113 "},"њ":{"ha":1096,"x_min":0,"x_max":0,"o":"m 831 421 b 1058 210 958 421 1058 343 b 831 0 1058 78 957 0 l 544 0 l 544 306 l 210 306 l 210 0 l 89 0 l 89 694 l 210 694 l 210 421 l 544 421 l 544 694 l 665 694 l 665 421 l 831 421 m 831 113 b 939 210 889 113 939 142 b 831 308 939 279 889 308 l 665 308 l 665 113 l 831 113 "},"ѕ":{"ha":636,"x_min":0,"x_max":0,"o":"m 196 507 b 585 190 196 358 585 446 b 325 -18 585 61 474 -18 b 49 144 186 -18 89 49 l 153 204 b 325 96 175 138 239 96 b 463 190 399 96 463 122 b 74 506 463 339 74 254 b 319 713 74 628 179 713 b 569 568 433 713 525 658 l 468 511 b 319 600 442 574 381 600 b 196 507 257 600 196 569 "},"є":{"ha":747,"x_min":0,"x_max":0,"o":"m 722 165 b 407 -18 672 54 557 -18 b 51 347 194 -18 51 138 b 406 713 51 557 192 713 b 718 531 546 713 663 642 l 614 471 b 404 596 579 546 504 596 b 178 404 282 596 199 515 l 488 404 l 488 290 l 178 290 b 407 99 200 179 285 99 b 619 225 517 99 592 151 "},"э":{"ha":747,"x_min":0,"x_max":0,"o":"m 342 713 b 696 347 556 713 696 557 b 340 -18 696 138 553 -18 b 25 165 190 -18 75 54 l 128 225 b 340 99 156 151 231 99 b 569 290 463 99 547 179 l 260 290 l 260 404 l 569 404 b 343 596 549 515 465 596 b 133 471 243 596 168 546 l 29 531 b 342 713 85 642 201 713 "},"і":{"ha":306,"x_min":0,"x_max":0,"o":"m 153 821 b 71 901 107 821 71 857 b 153 983 71 946 107 983 b 233 901 197 983 233 946 b 153 821 233 857 197 821 m 92 694 l 213 694 l 213 0 l 92 0 "},"ї":{"ha":306,"x_min":0,"x_max":0,"o":"m 21 786 b -53 860 -19 786 -53 819 b 21 932 -53 900 -19 932 b 93 860 61 932 93 900 b 21 786 93 819 61 786 m 285 786 b 211 860 244 786 211 819 b 285 932 211 900 244 932 b 357 860 325 932 357 900 b 285 786 357 819 325 786 m 92 694 l 213 694 l 213 0 l 92 0 "},"ј":{"ha":335,"x_min":0,"x_max":0,"o":"m 183 821 b 101 901 138 821 101 857 b 183 983 101 946 138 983 b 264 901 228 983 264 946 b 183 821 264 857 228 821 m 122 694 l 243 694 l 243 -42 b -25 -296 243 -221 150 -308 l -25 -179 b 122 -42 75 -187 122 -150 "},"ћ":{"ha":796,"x_min":0,"x_max":0,"o":"m 450 713 b 719 426 613 713 719 604 l 719 0 l 599 0 l 599 419 b 426 597 599 533 533 597 b 225 368 315 597 225 532 l 225 0 l 104 0 l 104 790 l 11 790 l 11 879 l 104 879 l 104 972 l 225 972 l 225 879 l 424 879 l 424 790 l 225 790 l 225 594 b 450 713 276 676 353 713 "},"ю":{"ha":1117,"x_min":0,"x_max":0,"o":"m 699 713 b 1064 347 901 713 1064 553 b 699 -18 1064 142 901 -18 b 342 290 515 -18 368 113 l 213 290 l 213 0 l 92 0 l 92 694 l 213 694 l 213 406 l 342 406 b 699 713 368 582 515 713 m 699 100 b 943 347 836 100 943 207 b 699 594 943 488 836 594 b 453 347 560 594 453 488 b 699 100 453 207 560 100 "},"я":{"ha":703,"x_min":0,"x_max":0,"o":"m 611 0 l 492 0 l 492 250 l 390 250 l 196 0 l 49 0 l 251 257 b 76 471 149 282 76 365 b 315 694 76 597 178 694 l 611 694 m 492 358 l 492 582 l 319 582 b 196 469 253 582 196 540 b 319 358 196 400 253 358 "},"ђ":{"ha":796,"x_min":0,"x_max":0,"o":"m 450 713 b 719 426 613 713 719 604 l 719 -42 b 451 -296 719 -221 626 -308 l 451 -179 b 599 -42 551 -187 599 -150 l 599 419 b 426 597 599 533 533 597 b 225 368 315 597 225 532 l 225 0 l 104 0 l 104 790 l 11 790 l 11 879 l 104 879 l 104 972 l 225 972 l 225 879 l 424 879 l 424 790 l 225 790 l 225 594 b 450 713 276 676 353 713 "},"Δ":{"ha":886,"x_min":0,"x_max":0,"o":"m 875 0 l 11 0 l 369 972 l 515 972 m 694 121 l 443 821 l 192 121 "},"Ω":{"ha":1104,"x_min":0,"x_max":0,"o":"m 1056 493 b 868 122 1056 338 983 204 l 1039 122 l 1039 0 l 657 0 l 657 122 b 928 486 815 167 928 310 b 553 865 928 700 765 865 b 178 486 340 865 178 700 b 447 122 178 310 288 167 l 447 0 l 67 0 l 67 122 l 236 122 b 49 493 121 204 49 338 b 553 990 49 769 269 990 b 1056 493 835 990 1056 769 "},"π":{"ha":910,"x_min":0,"x_max":0,"o":"m 872 579 l 758 579 l 758 0 l 638 0 l 638 579 l 278 579 l 278 0 l 157 0 l 157 579 l 39 579 l 39 694 l 872 694 "},"⁄":{"ha":292,"x_min":0,"x_max":0,"o":"m -181 0 l 375 972 l 472 972 l -83 0 "},"½":{"ha":1124,"x_min":0,"x_max":0,"o":"m 160 417 l 160 860 l 38 824 l 11 914 l 174 972 l 267 972 l 267 417 m 825 972 l 269 0 l 172 0 l 728 972 m 1082 100 l 1082 0 l 685 0 l 685 79 l 910 292 b 964 399 946 325 964 365 b 879 472 964 443 932 472 b 769 392 824 472 790 442 l 681 442 b 879 574 715 524 783 574 b 1072 401 994 574 1072 499 b 983 226 1072 336 1039 278 l 843 100 "},"¼":{"ha":1138,"x_min":0,"x_max":0,"o":"m 160 417 l 160 860 l 38 824 l 11 914 l 174 972 l 267 972 l 267 417 m 825 972 l 269 0 l 172 0 l 728 972 m 1111 99 l 1046 99 l 1046 0 l 940 0 l 940 99 l 664 99 l 664 197 l 861 556 l 976 556 l 782 197 l 940 197 l 940 319 l 1046 319 l 1046 197 l 1111 197 "},"¾":{"ha":1272,"x_min":0,"x_max":0,"o":"m 439 581 b 232 399 439 469 357 399 b 28 518 131 399 63 443 l 118 569 b 232 499 139 521 175 499 b 332 581 297 499 332 531 b 231 664 332 631 292 664 l 218 664 l 171 733 l 288 872 l 49 872 l 49 972 l 414 972 l 414 881 l 297 742 b 439 581 386 724 439 664 m 960 972 l 404 0 l 307 0 l 863 972 m 1246 99 l 1181 99 l 1181 0 l 1075 0 l 1075 99 l 799 99 l 799 197 l 996 556 l 1111 556 l 917 197 l 1075 197 l 1075 319 l 1181 319 l 1181 197 l 1246 197 "},"⅛":{"ha":1117,"x_min":0,"x_max":0,"o":"m 160 417 l 160 860 l 38 824 l 11 914 l 174 972 l 267 972 l 267 417 m 825 972 l 269 0 l 172 0 l 728 972 m 997 293 b 1085 149 1051 264 1085 213 b 881 -18 1085 47 1004 -18 b 676 149 757 -18 676 47 b 764 293 676 213 710 264 b 694 413 722 318 694 360 b 881 574 694 514 779 574 b 1067 413 982 574 1067 514 b 997 293 1067 360 1039 318 m 881 478 b 794 408 825 478 794 451 b 881 335 794 364 825 335 b 967 408 935 335 967 364 b 881 478 967 451 935 478 m 881 81 b 981 163 944 81 981 114 b 881 244 981 214 940 244 b 781 163 817 244 781 214 b 881 81 781 114 817 81 "},"⅜":{"ha":1251,"x_min":0,"x_max":0,"o":"m 439 581 b 232 399 439 469 357 399 b 28 518 131 399 63 443 l 118 569 b 232 499 139 521 175 499 b 332 581 297 499 332 531 b 231 664 332 631 292 664 l 218 664 l 171 733 l 288 872 l 49 872 l 49 972 l 414 972 l 414 881 l 297 742 b 439 581 386 724 439 664 m 960 972 l 404 0 l 307 0 l 863 972 m 1132 293 b 1219 149 1186 264 1219 213 b 1015 -18 1219 47 1139 -18 b 811 149 892 -18 811 47 b 899 293 811 213 844 264 b 829 413 857 318 829 360 b 1015 574 829 514 914 574 b 1201 413 1117 574 1201 514 b 1132 293 1201 360 1174 318 m 1015 478 b 929 408 960 478 929 451 b 1015 335 929 364 960 335 b 1101 408 1069 335 1101 364 b 1015 478 1101 451 1069 478 m 1015 81 b 1115 163 1079 81 1115 114 b 1015 244 1115 214 1075 244 b 915 163 951 244 915 214 b 1015 81 915 114 951 81 "},"⅝":{"ha":1235,"x_min":0,"x_max":0,"o":"m 426 579 b 226 399 426 468 349 399 b 24 519 124 399 58 443 l 114 569 b 225 497 135 522 171 497 b 324 581 289 497 324 531 b 225 668 324 632 289 668 l 53 668 l 74 972 l 403 972 l 403 874 l 164 874 l 157 764 l 229 764 b 426 579 346 764 426 696 m 943 972 l 388 0 l 290 0 l 846 972 m 1115 293 b 1203 149 1169 264 1203 213 b 999 -18 1203 47 1122 -18 b 794 149 875 -18 794 47 b 882 293 794 213 828 264 b 813 413 840 318 813 360 b 999 574 813 514 897 574 b 1185 413 1100 574 1185 514 b 1115 293 1185 360 1157 318 m 999 478 b 913 408 943 478 913 451 b 999 335 913 364 943 335 b 1085 408 1053 335 1085 364 b 999 478 1085 451 1053 478 m 999 81 b 1099 163 1063 81 1099 114 b 999 244 1099 214 1058 244 b 899 163 935 244 899 214 b 999 81 899 114 935 81 "},"⅞":{"ha":1175,"x_min":0,"x_max":0,"o":"m 385 888 l 189 417 l 76 417 l 268 872 l 11 872 l 11 972 l 385 972 m 883 972 l 328 0 l 231 0 l 786 972 m 1056 293 b 1143 149 1110 264 1143 213 b 939 -18 1143 47 1063 -18 b 735 149 815 -18 735 47 b 822 293 735 213 768 264 b 753 413 781 318 753 360 b 939 574 753 514 838 574 b 1125 413 1040 574 1125 514 b 1056 293 1125 360 1097 318 m 939 478 b 853 408 883 478 853 451 b 939 335 853 364 883 335 b 1025 408 993 335 1025 364 b 939 478 1025 451 993 478 m 939 81 b 1039 163 1003 81 1039 114 b 939 244 1039 214 999 244 b 839 163 875 244 839 214 b 939 81 839 114 875 81 "},"*":{"ha":547,"x_min":0,"x_max":0,"o":"m 468 758 l 342 764 l 415 663 l 336 615 l 274 729 l 211 615 l 133 663 l 206 764 l 81 758 l 81 847 l 206 840 l 133 943 l 211 990 l 274 876 l 336 990 l 415 943 l 342 840 l 468 847 "},"\\":{"ha":733,"x_min":0,"x_max":0,"o":"m 53 1111 l 125 1111 l 681 -139 l 608 -139 "},"·":{"ha":338,"x_min":0,"x_max":0,"o":"m 168 394 b 78 485 118 394 78 435 b 168 575 78 535 118 575 b 258 485 219 575 258 535 b 168 394 258 435 219 394 "},"•":{"ha":444,"x_min":0,"x_max":0,"o":"m 224 331 b 67 488 136 331 67 400 b 224 643 67 574 136 643 b 379 488 310 643 379 574 b 224 331 379 400 310 331 "},":":{"ha":338,"x_min":0,"x_max":0,"o":"m 168 531 b 78 621 118 531 78 571 b 168 711 78 671 118 711 b 258 621 219 711 258 671 b 168 531 258 571 219 531 m 168 -15 b 78 75 118 -15 78 25 b 168 165 78 125 118 165 b 258 75 219 165 258 125 b 168 -15 258 25 219 -15 "},",":{"ha":351,"x_min":0,"x_max":0,"o":"m 182 -194 l 78 -194 l 133 143 l 272 143 "},"…":{"ha":900,"x_min":0,"x_max":0,"o":"m 168 -15 b 78 75 118 -15 78 25 b 168 165 78 125 118 165 b 258 75 219 165 258 125 b 168 -15 258 25 219 -15 m 450 -15 b 360 75 400 -15 360 25 b 450 165 360 125 400 165 b 540 75 501 165 540 125 b 450 -15 540 25 501 -15 m 731 -15 b 640 75 681 -15 640 25 b 731 165 640 125 681 165 b 821 75 782 165 821 125 b 731 -15 821 25 782 -15 "},"!":{"ha":338,"x_min":0,"x_max":0,"o":"m 96 694 l 96 972 l 242 972 l 242 694 l 215 285 l 122 285 m 168 -15 b 78 75 118 -15 78 25 b 168 165 78 125 118 165 b 258 75 219 165 258 125 b 168 -15 258 25 219 -15 "},"¡":{"ha":338,"x_min":0,"x_max":0,"o":"m 168 710 b 258 619 219 710 258 669 b 168 529 258 569 219 529 b 78 619 118 529 78 569 b 168 710 78 669 118 710 m 215 410 l 242 0 l 242 -278 l 96 -278 l 96 0 l 122 410 "},"#":{"ha":840,"x_min":0,"x_max":0,"o":"m 624 563 l 599 410 l 761 410 l 744 310 l 582 310 l 542 69 l 436 69 l 476 310 l 307 310 l 267 69 l 160 69 l 200 310 l 39 310 l 56 410 l 217 410 l 242 563 l 79 563 l 96 664 l 258 664 l 299 903 l 406 903 l 365 664 l 535 664 l 575 903 l 681 903 l 640 664 l 801 664 l 785 563 m 518 563 l 349 563 l 324 410 l 493 410 "},".":{"ha":338,"x_min":0,"x_max":0,"o":"m 168 -15 b 78 75 118 -15 78 25 b 168 165 78 125 118 165 b 258 75 219 165 258 125 b 168 -15 258 25 219 -15 "},"?":{"ha":749,"x_min":0,"x_max":0,"o":"m 285 285 b 540 722 285 508 540 557 b 368 865 540 819 465 865 b 172 731 275 865 201 822 l 63 792 b 369 990 111 926 236 990 b 669 728 524 990 669 901 b 414 285 669 514 414 461 l 285 285 m 349 -15 b 258 75 299 -15 258 25 b 349 165 258 125 299 165 b 439 75 400 165 439 125 b 349 -15 439 25 400 -15 "},"¿":{"ha":749,"x_min":0,"x_max":0,"o":"m 400 710 b 490 619 450 710 490 669 b 400 529 490 569 450 529 b 310 619 349 529 310 569 b 400 710 310 669 349 710 m 464 410 b 208 -28 464 186 208 138 b 381 -171 208 -125 283 -171 b 576 -36 474 -171 547 -128 l 686 -97 b 379 -296 638 -232 513 -296 b 79 -33 225 -296 79 -207 b 335 410 79 181 335 233 l 464 410 "},"\"":{"ha":463,"x_min":0,"x_max":0,"o":"m 67 972 l 188 972 l 171 681 l 83 681 m 275 972 l 396 972 l 379 681 l 292 681 "},"'":{"ha":254,"x_min":0,"x_max":0,"o":"m 67 972 l 188 972 l 171 681 l 83 681 "},";":{"ha":356,"x_min":0,"x_max":0,"o":"m 188 531 b 97 621 138 531 97 571 b 188 711 97 671 138 711 b 278 621 239 711 278 671 b 188 531 278 571 239 531 m 182 -194 l 78 -194 l 133 143 l 272 143 "},"/":{"ha":733,"x_min":0,"x_max":0,"o":"m 53 -139 l 608 1111 l 681 1111 l 125 -139 "},"_":{"ha":722,"x_min":0,"x_max":0,"o":"m 53 -93 l 671 -93 l 671 -210 l 53 -210 "},"{":{"ha":494,"x_min":0,"x_max":0,"o":"m 467 -150 b 203 86 293 -164 203 -83 l 203 310 b 69 429 203 417 154 431 l 69 546 b 203 665 154 544 203 560 l 203 889 b 467 1125 203 1060 293 1139 l 467 1008 b 324 889 371 1018 324 996 l 324 665 b 224 488 324 564 288 513 b 324 310 288 464 324 411 l 324 86 b 467 -33 324 -19 371 -43 l 467 -150 "},"}":{"ha":494,"x_min":0,"x_max":0,"o":"m 28 -33 b 171 86 124 -43 171 -19 l 171 310 b 271 488 171 411 207 464 b 171 665 207 513 171 564 l 171 889 b 28 1008 171 996 124 1018 l 28 1125 b 292 889 201 1139 292 1060 l 292 665 b 425 546 292 560 340 544 l 425 429 b 292 310 340 431 292 417 l 292 86 b 28 -150 292 -83 201 -164 "},"[":{"ha":403,"x_min":0,"x_max":0,"o":"m 201 994 l 201 -22 l 375 -22 l 375 -139 l 81 -139 l 81 1111 l 375 1111 l 375 994 "},"]":{"ha":403,"x_min":0,"x_max":0,"o":"m 322 -139 l 28 -139 l 28 -22 l 201 -22 l 201 994 l 28 994 l 28 1111 l 322 1111 "},"(":{"ha":389,"x_min":0,"x_max":0,"o":"m 233 -139 b 81 486 136 56 81 264 b 233 1111 81 708 136 917 l 354 1111 b 201 486 257 917 201 708 b 354 -139 201 264 257 56 l 233 -139 "},")":{"ha":389,"x_min":0,"x_max":0,"o":"m 35 -139 b 188 486 132 56 188 264 b 35 1111 188 708 132 917 l 156 1111 b 308 486 253 917 308 708 b 156 -139 308 264 253 56 "},"—":{"ha":1049,"x_min":0,"x_max":0,"o":"m 104 485 l 944 485 l 944 368 l 104 368 "},"–":{"ha":910,"x_min":0,"x_max":0,"o":"m 104 485 l 806 485 l 806 368 l 104 368 "},"-":{"ha":715,"x_min":0,"x_max":0,"o":"m 104 485 l 611 485 l 611 368 l 104 368 "},"«":{"ha":708,"x_min":0,"x_max":0,"o":"m 225 429 l 378 176 l 247 176 l 94 429 l 247 683 l 378 683 m 461 429 l 614 176 l 483 176 l 331 429 l 483 683 l 614 683 "},"»":{"ha":708,"x_min":0,"x_max":0,"o":"m 378 429 l 225 176 l 94 176 l 247 429 l 94 683 l 225 683 m 614 429 l 461 176 l 331 176 l 483 429 l 331 683 l 461 683 "},"‹":{"ha":472,"x_min":0,"x_max":0,"o":"m 225 429 l 378 176 l 247 176 l 94 429 l 247 683 l 378 683 "},"›":{"ha":472,"x_min":0,"x_max":0,"o":"m 378 429 l 225 176 l 94 176 l 247 429 l 94 683 l 225 683 "},"„":{"ha":567,"x_min":0,"x_max":0,"o":"m 182 -194 l 78 -194 l 133 143 l 272 143 m 397 -194 l 293 -194 l 349 143 l 488 143 "},"“":{"ha":567,"x_min":0,"x_max":0,"o":"m 169 972 l 274 972 l 218 635 l 79 635 m 385 972 l 489 972 l 433 635 l 294 635 "},"”":{"ha":567,"x_min":0,"x_max":0,"o":"m 182 636 l 78 636 l 133 974 l 272 974 m 397 636 l 293 636 l 349 974 l 488 974 "},"‘":{"ha":351,"x_min":0,"x_max":0,"o":"m 169 972 l 274 972 l 218 635 l 79 635 "},"’":{"ha":351,"x_min":0,"x_max":0,"o":"m 182 636 l 78 636 l 133 974 l 272 974 "},"‚":{"ha":351,"x_min":0,"x_max":0,"o":"m 182 -194 l 78 -194 l 133 143 l 272 143 "}," ":{"ha":347,"x_min":0,"x_max":0,"o":""},"¢":{"ha":760,"x_min":0,"x_max":0,"o":"m 731 301 b 418 121 672 193 554 121 b 328 132 386 121 356 125 l 285 0 l 211 0 l 261 154 b 53 486 135 211 53 336 b 418 851 53 692 208 851 b 485 846 440 851 463 850 l 525 972 l 599 972 l 551 826 b 725 669 629 797 690 742 l 624 611 b 515 714 601 657 564 693 l 364 246 b 418 240 382 242 400 240 b 628 361 513 240 589 289 m 174 486 b 299 269 174 392 222 311 l 447 732 b 418 733 438 733 428 733 b 174 486 279 733 174 626 "},"¤":{"ha":763,"x_min":0,"x_max":0,"o":"m 678 486 b 614 301 678 415 654 351 l 711 204 l 664 157 l 565 256 b 382 193 515 215 451 193 b 197 254 313 193 249 215 l 100 157 l 53 204 l 149 301 b 85 486 108 351 85 415 b 149 671 85 557 108 621 l 53 768 l 100 815 l 197 718 b 382 781 249 758 313 781 b 565 718 451 781 515 757 l 664 815 l 711 768 l 614 671 b 678 486 654 621 678 557 m 382 308 b 558 486 482 308 558 386 b 382 664 558 588 482 664 b 206 486 281 664 206 588 b 382 308 206 386 281 308 "},"$":{"ha":764,"x_min":0,"x_max":0,"o":"m 715 260 b 446 -15 715 106 601 3 l 446 -139 l 358 -139 l 358 -17 b 49 192 207 -6 96 69 l 160 256 b 358 110 190 172 256 121 l 358 446 b 96 724 221 496 96 551 b 358 989 96 879 215 975 l 358 1111 l 446 1111 l 446 988 b 696 801 554 974 647 913 l 588 740 b 446 861 560 810 511 849 l 446 542 b 715 260 582 492 715 436 m 224 724 b 358 575 224 650 269 613 l 358 863 b 224 724 278 851 224 800 m 446 113 b 586 258 536 126 586 183 b 446 414 586 340 532 378 l 446 113 "},"€":{"ha":833,"x_min":0,"x_max":0,"o":"m 800 179 b 500 -18 747 54 642 -18 b 128 365 293 -18 161 132 l 26 365 l 26 456 l 119 456 l 119 486 b 121 529 119 500 119 515 l 26 529 l 26 618 l 129 618 b 500 990 165 844 297 990 b 799 797 640 990 744 919 l 692 736 b 500 865 654 819 590 865 b 260 618 375 865 289 778 l 589 618 l 589 529 l 250 529 b 249 486 249 515 249 501 l 249 456 l 589 456 l 589 365 l 258 365 b 500 108 285 200 371 108 b 693 240 590 108 657 154 "},"ƒ":{"ha":611,"x_min":0,"x_max":0,"o":"m 611 858 b 439 769 524 894 454 860 l 400 546 l 549 546 l 549 429 l 381 429 l 293 -83 b 0 -279 264 -262 144 -321 l 0 -161 b 172 -72 88 -196 157 -161 l 258 429 l 118 429 l 118 546 l 278 546 l 318 781 b 611 978 347 961 467 1019 l 611 858 "},"₽":{"ha":825,"x_min":0,"x_max":0,"o":"m 271 372 l 271 260 l 615 260 l 615 165 l 271 165 l 271 0 l 143 0 l 143 165 l 25 165 l 25 260 l 143 260 l 143 372 l 25 372 l 25 489 l 143 489 l 143 972 l 494 972 b 799 671 664 972 799 838 b 494 372 799 504 664 372 m 271 489 l 494 489 b 671 671 592 489 671 571 b 494 851 671 771 592 851 l 271 851 "},"£":{"ha":811,"x_min":0,"x_max":0,"o":"m 792 125 l 792 0 l 53 0 l 53 125 l 174 125 l 174 394 l 76 394 l 76 508 l 174 508 l 174 694 b 465 990 174 897 322 990 b 742 799 599 990 694 917 l 635 738 b 467 865 606 818 554 865 b 301 692 381 865 301 814 l 301 508 l 610 508 l 610 394 l 301 394 l 301 125 "},"¥":{"ha":811,"x_min":0,"x_max":0,"o":"m 540 489 l 711 489 l 711 399 l 488 399 l 483 393 l 483 322 l 711 322 l 711 231 l 483 231 l 483 0 l 354 0 l 354 231 l 100 231 l 100 322 l 354 322 l 354 394 l 351 399 l 100 399 l 100 489 l 299 489 l 11 972 l 156 972 l 419 517 l 683 972 l 828 972 "},"+":{"ha":757,"x_min":0,"x_max":0,"o":"m 678 429 l 436 429 l 436 188 l 321 188 l 321 429 l 81 429 l 81 544 l 321 544 l 321 785 l 436 785 l 436 544 l 678 544 "},"−":{"ha":757,"x_min":0,"x_max":0,"o":"m 81 544 l 678 544 l 678 429 l 81 429 "},"×":{"ha":674,"x_min":0,"x_max":0,"o":"m 417 486 l 604 299 l 522 221 l 338 407 l 151 221 l 69 299 l 257 486 l 69 674 l 151 751 l 338 567 l 522 751 l 604 674 "},"÷":{"ha":799,"x_min":0,"x_max":0,"o":"m 400 661 b 311 750 350 661 311 700 b 400 838 311 800 350 838 b 488 750 450 838 488 800 b 400 661 488 700 450 661 m 76 544 l 722 544 l 722 429 l 76 429 m 400 135 b 311 224 350 135 311 174 b 400 311 311 274 350 311 b 488 224 450 311 488 274 b 400 135 488 174 450 135 "},"=":{"ha":743,"x_min":0,"x_max":0,"o":"m 76 685 l 667 685 l 667 569 l 76 569 m 76 403 l 667 403 l 667 288 l 76 288 "},"≠":{"ha":743,"x_min":0,"x_max":0,"o":"m 450 569 l 376 403 l 667 403 l 667 288 l 325 288 l 236 90 l 153 90 l 242 288 l 76 288 l 76 403 l 293 403 l 367 569 l 76 569 l 76 685 l 418 685 l 507 882 l 590 882 l 501 685 l 667 685 l 667 569 "},">":{"ha":726,"x_min":0,"x_max":0,"o":"m 650 546 l 650 428 l 76 178 l 76 308 l 513 486 l 76 665 l 76 796 "},"<":{"ha":726,"x_min":0,"x_max":0,"o":"m 650 665 l 214 486 l 650 308 l 650 178 l 76 428 l 76 546 l 650 796 "},"≥":{"ha":726,"x_min":0,"x_max":0,"o":"m 650 636 l 650 522 l 76 301 l 76 432 l 504 579 l 76 728 l 76 858 m 76 233 l 650 233 l 650 118 l 76 118 "},"≤":{"ha":726,"x_min":0,"x_max":0,"o":"m 650 728 l 222 579 l 650 432 l 650 301 l 76 522 l 76 636 l 650 858 m 76 233 l 650 233 l 650 118 l 76 118 "},"±":{"ha":757,"x_min":0,"x_max":0,"o":"m 678 646 l 678 531 l 436 531 l 436 313 l 321 313 l 321 531 l 81 531 l 81 646 l 321 646 l 321 865 l 436 865 l 436 646 m 81 224 l 678 224 l 678 108 l 81 108 "},"≈":{"ha":814,"x_min":0,"x_max":0,"o":"m 394 547 b 171 514 254 628 204 597 l 76 553 b 418 664 124 715 244 765 b 633 708 554 586 607 611 l 738 660 b 394 547 693 501 572 446 m 76 313 b 418 425 121 472 244 526 b 643 458 561 343 610 376 l 738 419 b 394 308 690 258 572 207 b 181 264 261 385 207 361 "},"~":{"ha":828,"x_min":0,"x_max":0,"o":"m 751 539 b 401 428 704 376 579 325 b 181 383 261 507 211 483 l 76 432 b 425 544 124 594 251 646 b 647 589 568 463 617 488 "},"¬":{"ha":736,"x_min":0,"x_max":0,"o":"m 660 544 l 660 267 l 539 267 l 539 429 l 76 429 l 76 544 "},"∅":{"ha":1117,"x_min":0,"x_max":0,"o":"m 911 844 b 1061 486 1003 754 1061 626 b 558 -17 1061 208 836 -17 b 275 71 453 -17 356 15 l 194 -28 l 81 -28 l 207 126 b 56 486 114 218 56 346 b 558 989 56 764 281 989 b 842 901 664 989 761 957 l 922 1000 l 1038 1000 l 911 844 m 153 486 b 268 200 153 375 196 274 l 782 828 b 558 894 718 871 642 894 b 153 486 333 894 153 714 m 558 78 b 964 486 785 78 964 260 b 850 771 964 597 921 699 l 336 144 b 558 78 400 103 476 78 "},"∞":{"ha":1115,"x_min":0,"x_max":0,"o":"m 807 715 b 1040 486 940 715 1040 619 b 807 257 1040 353 940 257 b 558 397 699 257 618 328 b 308 257 499 328 417 257 b 75 486 175 257 75 353 b 308 715 75 619 175 715 b 558 575 417 715 499 644 b 807 715 618 644 699 715 m 311 367 b 488 486 382 367 439 419 b 311 606 439 553 382 606 b 194 486 243 606 194 556 b 311 367 194 417 243 367 m 804 367 b 921 486 874 367 921 417 b 804 606 921 556 874 606 b 629 486 735 606 678 553 b 804 367 678 419 735 367 "},"∫":{"ha":611,"x_min":0,"x_max":0,"o":"m 0 -162 b 167 -74 88 -199 151 -164 l 311 779 b 611 975 342 958 454 1017 l 611 857 b 432 768 511 892 447 857 l 288 -85 b 0 -282 257 -265 144 -324 "},"∏":{"ha":889,"x_min":0,"x_max":0,"o":"m 104 972 l 785 972 l 785 -278 l 664 -278 l 664 856 l 225 856 l 225 -278 l 104 -278 "},"∑":{"ha":761,"x_min":0,"x_max":0,"o":"m 63 -167 l 383 361 l 83 860 l 83 972 l 694 972 l 694 856 l 224 856 l 522 361 l 204 -161 l 715 -161 l 715 -278 l 63 -278 "},"√":{"ha":910,"x_min":0,"x_max":0,"o":"m 206 311 l 76 311 l 76 428 l 275 428 l 439 143 l 763 1111 l 889 1111 l 511 0 l 389 0 "},"µ":{"ha":847,"x_min":0,"x_max":0,"o":"m 808 115 l 808 0 l 738 0 b 596 93 667 0 617 35 b 375 -18 546 17 469 -18 b 213 36 307 -18 253 1 l 213 -278 l 92 -278 l 92 694 l 213 694 l 213 276 b 385 97 213 161 278 97 b 586 326 496 97 586 163 l 586 694 l 707 694 l 707 164 b 756 115 707 133 726 115 "},"∂":{"ha":804,"x_min":0,"x_max":0,"o":"m 326 990 b 728 486 544 990 728 793 b 358 -18 728 158 565 -18 b 67 278 172 -18 67 114 b 383 599 67 465 182 599 b 606 532 456 599 536 576 b 318 874 592 721 493 872 b 144 826 258 874 200 860 l 144 940 b 326 990 199 975 258 990 m 361 99 b 604 418 500 99 589 221 b 392 488 539 469 460 488 b 188 279 271 488 188 415 b 361 99 188 178 244 99 "},"%":{"ha":1011,"x_min":0,"x_max":0,"o":"m 296 560 b 76 775 169 560 76 656 b 296 990 76 893 169 990 b 515 775 422 990 515 894 b 296 560 515 656 425 560 m 296 661 b 407 775 363 661 407 713 b 296 888 407 838 363 888 b 185 775 231 888 185 838 b 296 661 185 711 231 661 m 788 860 l 856 822 l 208 99 l 142 138 m 715 -17 b 496 199 589 -17 496 79 b 715 414 496 318 589 414 b 935 199 842 414 935 318 b 715 -17 935 79 842 -17 m 715 86 b 826 199 781 86 826 136 b 715 311 826 261 781 311 b 604 199 649 311 604 261 b 715 86 604 136 649 86 "},"‰":{"ha":1513,"x_min":0,"x_max":0,"o":"m 296 560 b 76 775 169 560 76 656 b 296 990 76 893 169 990 b 515 775 422 990 515 894 b 296 560 515 656 425 560 m 296 661 b 407 775 363 661 407 713 b 296 888 407 838 363 888 b 185 775 231 888 185 838 b 296 661 185 711 231 661 m 788 860 l 856 822 l 208 99 l 142 138 m 715 -17 b 496 199 589 -17 496 79 b 715 414 496 318 589 414 b 935 199 842 414 935 318 b 715 -17 935 79 842 -17 m 1217 -17 b 997 199 1090 -17 997 79 b 1217 414 997 318 1090 414 b 1436 199 1343 414 1436 318 b 1217 -17 1436 79 1343 -17 m 715 86 b 826 199 781 86 826 136 b 715 311 826 261 781 311 b 604 199 649 311 604 261 b 715 86 604 136 649 86 m 1217 86 b 1328 199 1283 86 1328 136 b 1217 311 1328 261 1283 311 b 1106 199 1150 311 1106 261 b 1217 86 1106 136 1150 86 "},"↑":{"ha":986,"x_min":0,"x_max":0,"o":"m 910 393 l 554 749 l 554 0 l 433 0 l 433 750 l 76 393 l 76 556 l 493 972 l 910 556 "},"↗":{"ha":889,"x_min":0,"x_max":0,"o":"m 813 828 l 813 239 l 699 125 l 699 629 l 161 92 l 76 176 l 614 714 l 110 714 l 224 828 "},"→":{"ha":1129,"x_min":0,"x_max":0,"o":"m 1053 486 l 636 69 l 474 69 l 832 428 l 76 428 l 76 544 l 832 544 l 474 903 l 636 903 "},"↘":{"ha":889,"x_min":0,"x_max":0,"o":"m 813 706 l 813 117 l 224 117 l 110 231 l 614 231 l 76 768 l 161 851 l 699 314 l 699 819 "},"↓":{"ha":986,"x_min":0,"x_max":0,"o":"m 910 579 l 910 417 l 493 0 l 76 417 l 76 579 l 433 222 l 433 972 l 554 972 l 554 224 "},"↙":{"ha":889,"x_min":0,"x_max":0,"o":"m 275 231 l 779 231 l 665 117 l 76 117 l 76 706 l 190 819 l 190 314 l 728 851 l 813 768 "},"←":{"ha":1129,"x_min":0,"x_max":0,"o":"m 1053 428 l 297 428 l 656 69 l 493 69 l 76 486 l 493 903 l 656 903 l 297 544 l 1053 544 "},"↖":{"ha":889,"x_min":0,"x_max":0,"o":"m 728 92 l 190 629 l 190 125 l 76 239 l 76 828 l 665 828 l 779 714 l 275 714 l 813 176 "},"↔":{"ha":1465,"x_min":0,"x_max":0,"o":"m 1389 486 l 1032 129 l 871 129 l 1168 428 l 296 428 l 594 129 l 433 129 l 76 486 l 433 844 l 594 844 l 296 544 l 1169 544 l 871 844 l 1032 844 "},"↕":{"ha":868,"x_min":0,"x_max":0,"o":"m 494 922 l 494 50 l 792 347 l 792 186 l 435 -171 l 76 186 l 76 347 l 374 51 l 374 921 l 76 625 l 76 786 l 435 1143 l 792 786 l 792 625 "},"◊":{"ha":757,"x_min":0,"x_max":0,"o":"m 67 486 l 325 972 l 433 972 l 692 486 l 433 0 l 325 0 m 561 486 l 379 828 l 196 486 l 379 144 "},"@":{"ha":1096,"x_min":0,"x_max":0,"o":"m 558 850 b 1044 375 868 850 1044 604 b 838 78 1044 167 940 78 b 672 194 757 78 694 117 b 524 124 638 150 585 124 b 306 347 397 124 306 221 b 524 571 306 474 397 571 b 664 510 581 571 629 547 l 664 560 l 771 560 l 771 253 b 858 131 771 189 790 131 b 999 375 932 131 999 199 b 558 808 999 621 806 808 b 97 347 304 808 97 611 b 583 -114 97 81 304 -114 b 819 -75 676 -114 753 -101 l 819 -119 b 583 -156 756 -143 679 -156 b 53 347 281 -156 53 56 b 558 850 53 625 269 850 m 540 224 b 664 347 608 224 664 272 b 540 471 664 422 608 471 b 414 347 471 471 414 422 b 540 224 414 272 471 224 "},"&":{"ha":919,"x_min":0,"x_max":0,"o":"m 779 -22 l 681 83 b 403 -18 614 21 522 -18 b 76 263 211 -18 76 89 b 254 543 76 378 135 483 b 192 719 218 589 192 643 b 478 990 192 886 326 990 b 768 792 606 990 721 918 l 660 729 b 481 865 632 814 564 865 b 321 721 393 865 321 808 b 407 556 321 654 358 607 l 672 272 b 722 449 696 321 713 381 l 833 385 b 758 178 821 313 796 240 l 888 40 m 406 104 b 597 172 483 104 547 128 l 335 454 b 206 271 239 414 206 338 b 406 104 206 168 279 104 "},"¶":{"ha":847,"x_min":0,"x_max":0,"o":"m 789 863 l 704 863 l 704 -278 l 589 -278 l 589 863 l 449 863 l 449 -278 l 333 -278 l 333 403 b 49 688 175 403 49 531 b 333 972 49 846 175 972 l 789 972 "},"§":{"ha":724,"x_min":0,"x_max":0,"o":"m 669 374 b 582 201 669 304 636 243 b 639 60 617 165 639 121 b 379 -156 639 -68 533 -156 b 83 26 229 -156 129 -90 l 188 86 b 379 -44 218 -6 288 -44 b 518 60 460 -44 518 -8 b 294 225 518 140 406 178 b 78 464 186 269 78 332 b 172 638 78 536 115 596 b 121 776 140 672 121 717 b 368 990 121 903 228 990 b 628 821 488 990 583 929 l 529 765 b 368 878 497 843 438 878 b 242 776 301 878 242 843 b 450 614 242 697 342 661 b 669 374 558 567 669 506 m 199 468 b 344 325 199 394 265 356 b 493 264 393 307 446 289 b 549 367 531 292 549 328 b 397 514 549 443 479 481 b 258 572 351 532 303 549 b 199 468 218 546 199 508 "},"©":{"ha":1110,"x_min":0,"x_max":0,"o":"m 556 -17 b 53 486 278 -17 53 208 b 556 989 53 764 278 989 b 1058 486 833 989 1058 764 b 556 -17 1058 208 833 -17 m 556 25 b 1013 486 807 25 1013 231 b 556 947 1013 742 807 947 b 97 486 303 947 97 742 b 556 25 97 231 303 25 m 560 218 b 288 486 408 218 288 338 b 560 754 288 635 408 754 b 789 624 658 754 744 704 l 693 568 b 558 646 669 619 615 646 b 400 486 460 646 400 568 b 558 326 400 404 460 326 b 694 406 617 326 671 354 l 790 349 b 560 218 746 269 658 218 "},"®":{"ha":1110,"x_min":0,"x_max":0,"o":"m 556 989 b 1058 486 833 989 1058 764 b 556 -17 1058 208 833 -17 b 53 486 278 -17 53 208 b 556 989 53 764 278 989 m 556 25 b 1013 486 807 25 1013 231 b 556 947 1013 742 807 947 b 97 486 303 947 97 742 b 556 25 97 231 303 25 m 760 576 b 672 425 760 506 729 453 l 779 229 l 663 229 l 572 403 l 564 403 l 497 403 l 497 229 l 390 229 l 390 743 l 564 743 b 760 576 688 743 760 668 m 497 500 l 564 500 b 653 571 621 500 653 529 b 564 643 653 617 621 643 l 497 643 "},"™":{"ha":650,"x_min":0,"x_max":0,"o":"m 275 913 l 197 913 l 197 694 l 132 694 l 132 913 l 53 913 l 53 972 l 275 972 m 597 972 l 597 694 l 533 694 l 533 867 l 456 744 l 449 744 l 371 867 l 371 694 l 307 694 l 307 972 l 371 972 l 453 844 l 533 972 "},"°":{"ha":543,"x_min":0,"x_max":0,"o":"m 272 694 b 53 910 146 694 53 792 b 272 1125 53 1029 146 1125 b 492 910 399 1125 492 1029 b 272 694 492 792 401 694 m 272 799 b 382 910 338 799 382 847 b 272 1021 382 972 338 1021 b 163 910 207 1021 163 972 b 272 799 163 847 207 799 "},"|":{"ha":329,"x_min":0,"x_max":0,"o":"m 104 1000 l 225 1000 l 225 -278 l 104 -278 "},"¦":{"ha":329,"x_min":0,"x_max":0,"o":"m 104 1000 l 225 1000 l 225 486 l 104 486 m 104 236 l 225 236 l 225 -278 l 104 -278 "},"†":{"ha":667,"x_min":0,"x_max":0,"o":"m 590 640 l 394 640 l 394 0 l 274 0 l 274 640 l 76 640 l 76 757 l 274 757 l 274 972 l 394 972 l 394 757 l 590 757 "},"‡":{"ha":667,"x_min":0,"x_max":0,"o":"m 394 640 l 394 332 l 590 332 l 590 215 l 394 215 l 394 0 l 274 0 l 274 215 l 76 215 l 76 332 l 274 332 l 274 640 l 76 640 l 76 757 l 274 757 l 274 972 l 394 972 l 394 757 l 590 757 l 590 640 "},"℮":{"ha":1125,"x_min":0,"x_max":0,"o":"m 563 986 b 1076 486 869 986 1076 763 b 1056 465 1076 472 1069 465 l 278 465 b 257 444 264 465 257 458 l 257 178 b 267 151 257 167 260 160 b 590 28 342 72 444 28 b 911 163 728 28 836 78 b 936 175 918 171 925 175 l 988 175 b 1000 149 1006 175 1013 163 b 590 -14 907 49 767 -14 b 49 486 256 -14 49 210 b 563 986 49 763 256 986 m 868 794 b 858 821 868 806 865 813 b 563 944 783 900 681 944 b 267 821 444 944 342 900 b 257 794 260 813 257 806 l 257 528 b 278 507 257 514 264 507 l 847 507 b 868 528 861 507 868 514 l 868 794 "},"№":{"ha":1422,"x_min":0,"x_max":0,"o":"m 1151 558 b 932 774 1025 558 932 656 b 1151 989 932 893 1025 989 b 1371 774 1278 989 1371 893 b 1151 558 1371 656 1281 558 m 838 972 l 838 0 l 733 0 l 233 726 l 233 0 l 104 0 l 104 972 l 208 972 l 708 247 l 708 972 m 1151 663 b 1261 774 1217 663 1261 711 b 1151 885 1261 836 1217 885 b 1042 774 1086 885 1042 836 b 1151 663 1042 711 1086 663 m 949 469 l 1354 469 l 1354 354 l 949 354 "},"^":{"ha":722,"x_min":0,"x_max":0,"o":"m 667 542 l 531 542 l 361 836 l 192 542 l 56 542 l 307 972 l 415 972 "},"̈":{"ha":0,"x_min":0,"x_max":0,"o":"m -364 786 b -437 860 -404 786 -437 819 b -364 932 -437 900 -404 932 b -292 860 -324 932 -292 900 b -364 786 -292 819 -324 786 m -100 786 b -174 860 -140 786 -174 819 b -100 932 -174 900 -140 932 b -28 860 -60 932 -28 900 b -100 786 -28 819 -60 786 "},"̇":{"ha":0,"x_min":0,"x_max":0,"o":"m -114 783 b -201 869 -162 783 -201 822 b -114 957 -201 918 -162 957 b -28 869 -67 957 -28 918 b -114 783 -28 822 -67 783 "},"̀":{"ha":0,"x_min":0,"x_max":0,"o":"m -139 972 l -285 972 l -144 789 l -28 789 "},"́":{"ha":0,"x_min":0,"x_max":0,"o":"m -168 789 l -28 972 l -174 972 l -285 789 "},"̋":{"ha":0,"x_min":0,"x_max":0,"o":"m -364 785 l -254 969 l -385 969 l -486 785 m -151 785 l -28 969 l -158 969 l -274 785 "},"̂":{"ha":0,"x_min":0,"x_max":0,"o":"m -157 785 l -242 897 l -326 785 l -456 785 l -308 972 l -175 972 l -28 785 "},"̌":{"ha":0,"x_min":0,"x_max":0,"o":"m -28 972 l -175 785 l -308 785 l -456 972 l -326 972 l -242 860 l -157 972 "},"̆":{"ha":0,"x_min":0,"x_max":0,"o":"m -235 774 b -442 961 -361 774 -442 842 l -329 961 b -235 871 -329 897 -296 871 b -140 961 -174 871 -140 897 l -28 961 b -235 774 -28 842 -106 774 "},"̊":{"ha":0,"x_min":0,"x_max":0,"o":"m -186 758 b -343 907 -279 758 -343 822 b -186 1054 -343 990 -279 1054 b -29 907 -92 1054 -29 990 b -186 758 -29 822 -92 758 m -186 843 b -119 907 -142 843 -119 871 b -186 969 -119 942 -142 969 b -251 907 -228 969 -251 942 b -186 843 -251 871 -228 843 "},"̃":{"ha":0,"x_min":0,"x_max":0,"o":"m -440 796 b -226 933 -440 983 -329 1007 b -126 965 -158 885 -126 869 l -25 965 b -239 829 -25 778 -135 756 b -339 796 -306 878 -339 893 l -440 796 "},"̄":{"ha":0,"x_min":0,"x_max":0,"o":"m -403 900 l -28 900 l -28 799 l -403 799 "},"̒":{"ha":0,"x_min":0,"x_max":0,"o":"m -160 1090 l -42 1090 l -28 1340 l -118 1340 "},"̦":{"ha":0,"x_min":0,"x_max":0,"o":"m -28 -94 l -146 -94 l -160 -344 l -69 -344 "},"̧":{"ha":0,"x_min":0,"x_max":0,"o":"m -146 -62 b -28 -174 -78 -76 -28 -115 b -319 -300 -28 -249 -86 -314 l -319 -208 b -133 -165 -194 -218 -133 -200 b -249 -115 -133 -132 -176 -119 l -249 0 l -146 0 l -146 -62 "},"̨":{"ha":0,"x_min":0,"x_max":0,"o":"m -122 -296 b -243 -185 -199 -296 -243 -253 b -146 0 -243 -129 -208 -62 l -31 0 b -125 -158 -89 -56 -125 -117 b -82 -200 -126 -187 -110 -200 b -31 -189 -65 -200 -49 -197 l -31 -278 b -122 -296 -58 -289 -86 -296 "},"´":{"ha":313,"x_min":0,"x_max":0,"o":"m 144 789 l 285 972 l 139 972 l 28 789 "},"˘":{"ha":469,"x_min":0,"x_max":0,"o":"m 235 774 b 28 961 108 774 28 842 l 140 961 b 235 871 140 897 174 871 b 329 961 296 871 329 897 l 442 961 b 235 774 442 842 364 774 "},"ˇ":{"ha":483,"x_min":0,"x_max":0,"o":"m 456 972 l 308 785 l 175 785 l 28 972 l 157 972 l 242 860 l 326 972 "},"¸":{"ha":347,"x_min":0,"x_max":0,"o":"m 201 -62 b 319 -174 269 -76 319 -115 b 28 -300 319 -249 261 -314 l 28 -208 b 214 -165 153 -218 214 -200 b 99 -115 214 -132 171 -119 l 99 0 l 201 0 l 201 -62 "},"ˆ":{"ha":483,"x_min":0,"x_max":0,"o":"m 326 785 l 242 897 l 157 785 l 28 785 l 175 972 l 308 972 l 456 785 "},"¨":{"ha":465,"x_min":0,"x_max":0,"o":"m 101 786 b 28 860 61 786 28 819 b 101 932 28 900 61 932 b 174 860 142 932 174 900 b 101 786 174 819 142 786 m 365 786 b 292 860 325 786 292 819 b 365 932 292 900 325 932 b 438 860 406 932 438 900 b 365 786 438 819 406 786 "},"˙":{"ha":233,"x_min":0,"x_max":0,"o":"m 115 783 b 28 869 67 783 28 822 b 115 957 28 918 67 957 b 201 869 163 957 201 918 b 115 783 201 822 163 783 "},"`":{"ha":313,"x_min":0,"x_max":0,"o":"m 174 972 l 28 972 l 168 789 l 285 789 "},"˝":{"ha":514,"x_min":0,"x_max":0,"o":"m 150 785 l 260 969 l 129 969 l 28 785 m 363 785 l 486 969 l 356 969 l 240 785 "},"¯":{"ha":431,"x_min":0,"x_max":0,"o":"m 28 900 l 403 900 l 403 799 l 28 799 "},"˛":{"ha":268,"x_min":0,"x_max":0,"o":"m 149 -296 b 28 -185 72 -296 28 -253 b 125 0 28 -129 63 -62 l 240 0 b 146 -158 182 -56 146 -117 b 189 -200 144 -187 161 -200 b 240 -189 206 -200 222 -197 l 240 -278 b 149 -296 213 -289 185 -296 "},"˚":{"ha":369,"x_min":0,"x_max":0,"o":"m 185 758 b 28 907 92 758 28 822 b 185 1054 28 990 92 1054 b 342 907 279 1054 342 990 b 185 758 342 822 279 758 m 185 843 b 251 907 229 843 251 871 b 185 969 251 942 229 969 b 119 907 143 969 119 942 b 185 843 119 871 143 843 "},"˜":{"ha":472,"x_min":0,"x_max":0,"o":"m 29 796 b 243 933 29 983 140 1007 b 343 965 311 885 343 869 l 444 965 b 231 829 444 778 335 756 b 131 796 164 878 131 893 l 29 796 "}}}
